<?xml version="1.0" ?>
<!-- Uploaded to: SVG Repo, www.svgrepo.com, Generator: SVG Repo Mixer Tools -->
<svg width="800px" height="800px" viewBox="0 0 128 128" id="Layer_1" version="1.1" xml:space="preserve" xmlns="http://www.w3.org/2000/svg" xmlns:xlink="http://www.w3.org/1999/xlink">
<style type="text/css">
	.st0{fill:#581166;}
	.st1{fill:#E83A3A;}
	.st2{fill:#FF5855;}
	.st3{opacity:0.5;}
	.st4{fill:#FFDA8E;}
	.st5{fill:#FFFFFF;}
	.st6{fill:#EABA65;}
	.st7{fill:#E6E6E6;}
	.st8{fill:#460A54;}
	.st9{fill:none;}
	.st10{fill:none;stroke:#581166;stroke-width:2;stroke-linecap:round;stroke-linejoin:round;stroke-miterlimit:10;}
	.st11{fill:#F2F2F2;}
</style>
<g>
<g>
<g>
<g>
<path class="st0" d="M67.3,36.5h-6.1c-5.2,0-9.4-4.2-9.4-9.4V19c0-5.2,4.2-9.4,9.4-9.4h6.1c5.2,0,9.4,4.2,9.4,9.4v8.2      C76.7,32.3,72.5,36.5,67.3,36.5z M61.3,13.4c-3.1,0-5.6,2.5-5.6,5.6v8.2c0,3.1,2.5,5.6,5.6,5.6h6.1c3.1,0,5.6-2.5,5.6-5.6V19      c0-3.1-2.5-5.6-5.6-5.6H61.3z"/>
</g>
</g>
</g>
<g>
<g>
<g>
<path class="st2" d="M93.4,115.3H35.2c-10.3,0-18.7-8.4-18.7-18.7V84.3c0-10.3,8.4-18.7,18.7-18.7h58.2      c10.3,0,18.7,8.4,18.7,18.7v12.4C112.1,106.9,103.7,115.3,93.4,115.3z"/>
</g>
</g>
</g>
<g>
<g>
<g>
<path class="st0" d="M93.4,117.2H35.2c-11.4,0-20.6-9.2-20.6-20.6V84.3c0-11.4,9.2-20.6,20.6-20.6h58.2      c11.4,0,20.6,9.2,20.6,20.6v12.4C114,108,104.8,117.2,93.4,117.2z M35.2,67.4c-9.3,0-16.9,7.6-16.9,16.9v12.4      c0,9.3,7.6,16.9,16.9,16.9h58.2c9.3,0,16.9-7.6,16.9-16.9V84.3c0-9.3-7.6-16.9-16.9-16.9H35.2z"/>
</g>
</g>
</g>
<g>
<g>
<g>
<path class="st0" d="M111.6,82H17.1c-1,0-1.9-0.8-1.9-1.9c0-1,0.8-1.9,1.9-1.9h94.5c1,0,1.9,0.8,1.9,1.9      C113.4,81.2,112.6,82,111.6,82z"/>
</g>
</g>
</g>
<g>
<g>
<g>
<path class="st2" d="M99.3,38.2v69.1c0,9.9-8.1,8.1-17.9,8.1H47.2c-9.9,0-17.9-8.1-17.9-17.9V38.2c0-6.9,4-13,9.8-16      c2.4-1.3,5.2-2,8.1-2h34.2c2.9,0,5.7,0.7,8.1,2C95.3,25.2,99.3,31.3,99.3,38.2z"/>
</g>
</g>
</g>
<g class="st3">
<g>
<g>
<path class="st0" d="M89.5,25.6v20.7c0,3.9-3.2,7.2-7.2,7.2H46.3c-3.9,0-7.2-3.2-7.2-7.2V25.6c2.4-1.3,5.2-2,8.1-2h34.2      C84.3,23.7,87.1,24.4,89.5,25.6z"/>
</g>
</g>
</g>
<g class="st3">
<g>
<g>
<path class="st0" d="M87.5,110.5H41.1c-2.2,0-4-1.8-4-4V83.8c0-2.2,1.8-4,4-4h46.4c2.2,0,4,1.8,4,4v22.7      C91.5,108.7,89.7,110.5,87.5,110.5z"/>
</g>
</g>
</g>
<g>
<g>
<g>
<path class="st0" d="M89.1,117.4c-1.2,0-2.5,0-3.8-0.1c-1.4,0-2.8-0.1-4.2-0.1H46.8c-0.9,0-1.8,0-2.7,0      c-6.1,0.1-11.3,0.1-14.4-3c-1.8-1.7-2.6-4.2-2.6-7.6V38.2c0-10.9,8.9-19.8,19.8-19.8H81c10.9,0,19.8,8.9,19.8,19.8l0.8,69.2      c0,3.2-0.8,5.6-2.5,7.2C96.7,116.9,93.2,117.4,89.1,117.4z M46.8,113.5H81c1.5,0,2.9,0,4.3,0.1c4.9,0.1,9.2,0.3,11.1-1.6      c0.9-0.9,1.4-2.4,1.4-4.5l-0.8-69.2c0-8.9-7.2-16.1-16-16.1H46.8c-8.8,0-16,7.2-16,16v68.4c0,2.3,0.5,4,1.5,5      c2,2,6.5,2,11.8,1.9C44.9,113.5,45.9,113.5,46.8,113.5z"/>
</g>
</g>
</g>
<g>
<g>
<g>
<path class="st4" d="M87.5,106.5H41.1c-2.2,0-4-1.8-4-4V79.8c0-2.2,1.8-4,4-4h46.4c2.2,0,4,1.8,4,4v22.7      C91.5,104.7,89.7,106.5,87.5,106.5z"/>
</g>
</g>
</g>
<g>
<g>
<g>
<path class="st0" d="M84,108.4H44.6c-5.2,0-9.4-4.2-9.4-9.4V83.3c0-5.2,4.2-9.4,9.4-9.4H84c5.2,0,9.4,4.2,9.4,9.4V99      C93.4,104.2,89.2,108.4,84,108.4z M44.6,77.7c-3.1,0-5.6,2.5-5.6,5.6V99c0,3.1,2.5,5.6,5.6,5.6H84c3.1,0,5.6-2.5,5.6-5.6V83.3      c0-3.1-2.5-5.6-5.6-5.6H44.6z"/>
</g>
</g>
</g>
<g>
<g>
<g>
<path class="st0" d="M91.5,87.1H37.1c-1,0-1.9-0.8-1.9-1.9s0.8-1.9,1.9-1.9h54.4c1,0,1.9,0.8,1.9,1.9S92.6,87.1,91.5,87.1z"/>
</g>
</g>
</g>
<g>
<g>
<g>
<g>
<path class="st4" d="M111.6,80.9v19.3c-0.2,0-0.4,0-0.6,0c-3.7,0-6.7-3-6.7-6.7V81.7c0-0.3,0-0.5,0.1-0.8H111.6z"/>
</g>
</g>
</g>
<g>
<g>
<g>
<path class="st0" d="M111,102.1c-4.7,0-8.6-3.8-8.6-8.6V81.7c0-0.3,0-0.6,0.1-1c0.1-0.9,0.9-1.7,1.9-1.7h7.2       c1,0,1.9,0.8,1.9,1.9v19.3c0,0.9-0.6,1.7-1.5,1.8C111.6,102.1,111.3,102.1,111,102.1z M106.2,82.8v10.8c0,2.2,1.5,4.1,3.5,4.6       V82.8H106.2z"/>
</g>
</g>
</g>
</g>
<g>
<g>
<g>
<g>
<path class="st4" d="M17.1,80.4v19.3c0.2,0,0.4,0,0.6,0c3.7,0,6.7-3,6.7-6.7V81.3c0-0.3,0-0.5-0.1-0.8H17.1z"/>
</g>
</g>
</g>
<g>
<g>
<g>
<path class="st0" d="M17.6,101.7c-0.3,0-0.6,0-0.9-0.1c-0.9-0.2-1.5-0.9-1.5-1.8V80.4c0-1,0.8-1.9,1.9-1.9h7.2       c0.9,0,1.7,0.7,1.9,1.6c0.1,0.4,0.1,0.7,0.1,1.1v11.9C26.2,97.9,22.3,101.7,17.6,101.7z M18.9,82.3v15.5c2-0.6,3.5-2.4,3.5-4.6       V82.3H18.9z"/>
</g>
</g>
</g>
</g>
<g>
<g>
<g>
<g>
<rect class="st4" height="18.4" width="6.9" x="47.3" y="50.1"/>
</g>
</g>
</g>
<g>
<g>
<g>
<rect class="st4" height="18.4" width="6.9" x="74.5" y="50.1"/>
</g>
</g>
</g>
</g>
<g>
<g>
<g>
<g>
<path class="st0" d="M54.2,70.4h-6.9c-1,0-1.9-0.8-1.9-1.9V50.1c0-1,0.8-1.9,1.9-1.9h6.9c1,0,1.9,0.8,1.9,1.9v18.4       C56,69.5,55.2,70.4,54.2,70.4z M49.2,66.6h3.1V52h-3.1V66.6z"/>
</g>
</g>
</g>
<g>
<g>
<g>
<path class="st0" d="M81.3,70.4h-6.9c-1,0-1.9-0.8-1.9-1.9V50.1c0-1,0.8-1.9,1.9-1.9h6.9c1,0,1.9,0.8,1.9,1.9v18.4       C83.2,69.5,82.4,70.4,81.3,70.4z M76.3,66.6h3.1V52h-3.1V66.6z"/>
</g>
</g>
</g>
</g>
<g>
<g>
<g>
<path class="st0" d="M84.4,64.6H71.4c-1,0-1.9-0.8-1.9-1.9v-5.6c0-1,0.8-1.9,1.9-1.9h12.9c1,0,1.9,0.8,1.9,1.9v5.6      C86.2,63.7,85.4,64.6,84.4,64.6z M73.3,60.8h9.2V59h-9.2V60.8z"/>
</g>
</g>
</g>
<g>
<g>
<g>
<g>
<rect class="st5" height="5.6" width="12.9" x="71.4" y="56.8"/>
</g>
</g>
<g>
<g>
<path class="st0" d="M84.4,64.3H71.4c-1,0-1.9-0.8-1.9-1.9v-5.6c0-1,0.8-1.9,1.9-1.9h12.9c1,0,1.9,0.8,1.9,1.9v5.6       C86.2,63.4,85.4,64.3,84.4,64.3z M73.3,60.5h9.2v-1.9h-9.2V60.5z"/>
</g>
</g>
</g>
</g>
<g>
<g>
<g>
<g>
<rect class="st5" height="5.6" width="12.9" x="44.3" y="56.8"/>
</g>
</g>
<g>
<g>
<path class="st0" d="M57.2,64.3H44.3c-1,0-1.9-0.8-1.9-1.9v-5.6c0-1,0.8-1.9,1.9-1.9h12.9c1,0,1.9,0.8,1.9,1.9v5.6       C59.1,63.4,58.2,64.3,57.2,64.3z M46.1,60.5h9.2v-1.9h-9.2V60.5z"/>
</g>
</g>
</g>
</g>
<g>
<g>
<g>
<path class="st2" d="M89.5,22.2V43c0,3.9-3.2,7.2-7.2,7.2H46.3c-3.9,0-7.2-3.2-7.2-7.2V22.2c2.4-1.3,5.2-2,8.1-2h34.2      C84.3,20.3,87.1,21,89.5,22.2z"/>
</g>
</g>
</g>
<g>
<g>
<g>
<path class="st0" d="M82.4,52H46.3c-5,0-9-4.1-9-9V22.2c0-0.7,0.4-1.3,1-1.7c2.8-1.4,5.8-2.2,9-2.2h34.2c3.2,0,6.2,0.7,9,2.2      c0.6,0.3,1,1,1,1.7V43C91.4,48,87.4,52,82.4,52z M41,23.4V43c0,2.9,2.4,5.3,5.3,5.3h36.1c2.9,0,5.3-2.4,5.3-5.3V23.4      c-2-0.8-4.1-1.3-6.2-1.3H47.2C45,22.2,42.9,22.6,41,23.4z"/>
</g>
</g>
</g>
</g>
<g class="st3">
<g>
<g>
<rect class="st0" height="44.4" width="3.9" x="99.7" y="67.9"/>
</g>
</g>
</g>
<g class="st3">
<g>
<g>
<rect class="st0" height="44.4" width="3.9" x="25.4" y="68.9"/>
</g>
</g>
</g>
</svg>