<svg width="100" height="158" viewBox="0 0 100 158" fill="none" xmlns="http://www.w3.org/2000/svg">
<path d="M30.6013 32.6699C30.6013 32.6699 33.9397 32.806 35.0455 32.9316C37.8956 33.2549 44.7349 34.466 46.7083 36.4622C48.0559 37.8257 48.3911 40.0576 48.4425 41.5637C48.6988 49.0499 49.3572 62.4382 48.2449 69.9381C47.9253 72.0939 47.079 74.5064 43.2266 75.087C42.4893 75.1985 39.4597 75.3245 38.7343 75.373L36.6943 75.4721L30.6013 32.6699Z" fill="white"/>
<path d="M15.8945 79.0955C12.947 79.0792 10.5255 79.0672 9.33025 79.0632C9.22195 79.0632 9.11476 79.0415 9.01499 78.9993C8.91522 78.9572 8.8249 78.8955 8.74934 78.8179C8.67377 78.7403 8.61451 78.6484 8.57503 78.5476C8.53554 78.4467 8.51665 78.339 8.51945 78.2307C8.598 74.9915 8.87309 66.3554 8.87309 66.3554L7.64676 64.7353C6.98456 65.1165 6.23969 65.3313 5.47617 65.3611C4.71264 65.391 3.95329 65.2349 3.26337 64.9065C1.43184 63.9726 0.40386 61.7972 0.7984 58.3332C0.863554 57.7613 0.932327 57.1822 1.00472 56.5958C1.34135 52.7843 3.47476 45.4571 4.21679 44.0671C4.69104 43.1872 5.27349 42.3701 5.95059 41.6347C6.68367 40.8606 7.49795 40.1677 8.37937 39.5679C10.774 37.9437 13.2666 36.4689 15.8431 35.152L16.2228 34.9565L16.824 35.8252C17.2341 36.4177 18.8542 36.868 19.5669 36.9734C21.9628 37.3274 24.1519 36.7124 26.4544 35.962C28.1673 35.4277 29.7715 34.5928 31.1918 33.4963C34.4293 35.0454 37.5173 36.8891 40.4168 39.0043C41.4555 39.7244 42.325 40.6618 42.965 41.7516C43.5109 42.6743 43.9045 43.679 44.1305 44.727C44.6843 47.6625 45.1042 49.4289 45.3757 52.7771C45.4734 54.7063 45.8075 57.7696 45.8039 59.6989C45.8003 61.925 45.7062 64.2379 44.6673 66.2034C43.6285 68.1689 41.0792 68.5334 38.9255 67.9796C38.4572 67.8616 38.0076 67.6788 37.5898 67.4366C37.5898 67.4366 37.7024 76.0854 37.7328 78.5757C37.734 78.6604 37.7182 78.7445 37.6865 78.823C37.6547 78.9016 37.6076 78.973 37.5479 79.0331C37.4882 79.0932 37.4171 79.1408 37.3388 79.173C37.2605 79.2053 37.1765 79.2216 37.0918 79.2211C34.3369 79.2026 23.4067 79.1364 15.8945 79.0955Z" fill="white"/>
<path d="M7.53247 51.7505C7.92339 49.4122 9.20474 42.9331 9.44364 41.6807C10.83 41.8327 16.4404 42.5675 18.366 42.9765C17.8883 47.454 16.654 56.7094 16.1943 60.0684C15.0179 59.9055 13.1212 59.5943 11.8181 59.3554L7.53247 51.7505Z" fill="white"/>
<path d="M71.2627 143.469L71.2327 143.107L71.3293 143.112C73.2112 143.213 75.0984 143.117 76.9604 142.826C76.9683 143.26 76.9763 143.639 76.9763 143.639C76.9799 144.016 76.9763 145.794 77.4892 146.194C76.8788 146.519 76.2854 146.875 75.7112 147.26C75.2566 147.564 74.789 147.279 74.4603 146.842C73.669 145.792 72.5889 145.128 71.9005 145.111L71.4553 145.101L71.448 144.976C71.4245 144.584 71.372 144.194 71.2909 143.81L71.2627 143.469Z" fill="white"/>
<path d="M20.7433 141.657C19.2358 142.142 17.1599 142.219 15.1934 142.134L15.26 142.667C15.3468 143.079 15.403 143.496 15.4283 143.916L15.4569 144.114L16.1062 144.095C16.8432 144.114 18.3167 144.401 18.8467 145.948C18.8912 146.077 18.9647 146.194 19.0617 146.29C19.1587 146.386 19.2764 146.459 19.4059 146.502C19.5354 146.545 19.6731 146.558 19.8083 146.54C19.9436 146.521 20.0728 146.472 20.1859 146.396C20.8124 145.975 21.4602 145.588 22.1268 145.235L22.0978 145.198C21.751 144.679 21.5856 144.06 21.6273 143.437L20.7433 141.657Z" fill="white"/>
<path d="M9.59672 19.5999C9.66911 20.6424 9.73137 21.6631 9.80267 22.6375C10.0173 25.56 10.8097 28.2251 12.7892 29.9684C14.2547 31.3292 16.1183 32.1839 18.1058 32.4065V32.5329C18.109 33.2521 18.1123 33.5797 18.1155 34.2989C18.1361 34.4014 18.1206 34.5078 18.0716 34.6002C18.0227 34.6925 17.9433 34.7651 17.847 34.8056C17.4835 35.0264 17.1154 35.2392 16.7426 35.4438C16.5345 36.2159 18.7088 36.8431 19.5659 36.9702C21.9618 37.3242 24.1509 36.7092 26.4534 35.9589C28.1016 35.4475 29.6482 34.6533 31.0243 33.6119L29.9651 33.1453C29.6961 32.9456 29.4779 32.6854 29.328 32.3857C29.1782 32.086 29.101 31.7553 29.1026 31.4202C29.087 30.8092 29.0689 29.3382 29.0602 28.2241C29.0602 28.2241 29.0602 28.2139 29.0602 28.1951C29.6704 27.5759 30.2317 26.9103 30.739 26.2043C30.739 26.2043 31.2943 25.4116 31.5353 24.9559L31.6371 24.7278C32.1777 24.663 32.6948 24.4687 33.1443 24.1614C33.8501 23.5811 34.3668 22.8035 34.6283 21.9281C34.7944 21.4256 34.8735 20.8985 34.8622 20.3694C36.9503 16.3415 36.9467 10.8136 34.6008 6.88737C33.8863 5.69108 33.2887 5.16696 32.0497 3.85158C29.5677 1.73373 26.3488 0.756428 22.9506 0.738692C19.0389 0.720231 14.9683 2.24012 12.605 4.99466C11.4905 6.29303 10.1842 7.81364 9.57753 10.8585C9.33429 12.0801 9.02662 13.8592 9.41031 17.2906C9.48306 18.0637 9.54351 18.8372 9.59672 19.5999Z" fill="white"/>
<path d="M9.89353 9.59136C9.77444 9.98301 9.66839 10.4043 9.57753 10.8582C9.33429 12.0799 9.02662 13.8589 9.41031 17.2903L9.45627 17.6997L9.50948 17.4431C9.75707 16.2486 12.1634 13.0159 13.853 12.1305C14.051 12.027 14.3051 12.1667 14.3855 12.4979C14.4513 12.7565 14.4688 13.025 14.4373 13.2899C14.4238 13.365 14.4314 13.4423 14.4593 13.5133C14.4871 13.5843 14.5341 13.6461 14.595 13.692C14.656 13.7379 14.7284 13.766 14.8043 13.7731C14.8802 13.7803 14.9567 13.7663 15.0251 13.7326C16.2301 13.0633 18.5676 11.1807 21.0873 10.7156L21.3642 10.6642C22.0494 10.75 22.7246 10.9035 23.3796 11.1225C24.1064 11.4385 27.4658 12.7198 29.8432 17.2903L31.8524 18.449C32.1922 18.1562 32.6311 18.0046 33.0791 18.0251C33.3595 18.0134 33.6379 18.0764 33.8859 18.2076C34.134 18.3388 34.3427 18.5335 34.4908 18.7719C34.7474 19.265 34.8748 19.8152 34.8611 20.371C36.9489 16.3434 36.9453 10.8152 34.5994 6.8893C34.1786 6.18694 33.6746 5.53795 33.0983 4.95642L31.3348 3.29138C28.964 1.563 26.0302 0.757635 22.9492 0.742433C19.0389 0.719991 14.9683 2.23988 12.605 4.99442C11.657 6.09733 10.569 7.36203 9.89353 9.59136Z" fill="#7A7473"/>
<path d="M83.1907 15.5726C80.9144 13.7993 78.0801 12.8964 75.1975 13.0262C71.0515 13.1348 67.6831 14.655 65.3883 17.23C64.0337 18.8526 63.1039 20.7866 62.6826 22.8579C62.2734 25.1587 62.2651 27.5129 62.658 29.8166L64.268 39.995C64.2347 41.2514 63.7612 43.0073 63.6237 43.6107C63.2617 45.1838 65.0715 46.6316 66.5491 47.0855L89.4574 48.419C90.0633 47.5415 90.4129 46.5126 90.4673 45.4477C90.5628 43.1745 89.2728 41.0994 88.7132 38.8929C88.331 37.2409 88.1078 35.5561 88.0465 33.8616C88.0007 32.6968 88.0664 31.5303 88.2427 30.378C88.3965 29.1166 88.6951 27.8949 88.7494 26.6136C88.7963 25.4221 88.6671 24.2302 88.3661 23.0765C87.771 20.7874 86.7734 18.789 85.04 17.1797" fill="#B5886A"/>
<path d="M66.9922 24.8464C66.8043 25.8483 66.6726 26.8151 67.1634 26.6692C70.2543 25.7764 72.9658 23.8917 74.8797 21.3057C75.2732 22.8169 75.8284 24.6991 76.3167 25.613C77.0157 26.9237 79.2016 29.8223 81.0136 30.375L83.9603 30.4015C84.283 30.1224 84.7003 29.9775 85.1266 29.9964C85.3935 29.985 85.6586 30.0448 85.8948 30.1696C86.1311 30.2944 86.3299 30.4797 86.4709 30.7066C86.9266 31.4616 86.9078 32.8505 86.6001 33.7109C86.3512 34.5437 85.8598 35.2834 85.1885 35.8356C84.7633 36.1262 84.2746 36.3106 83.7634 36.3731L83.6577 36.5903C83.4304 37.0247 82.9023 37.7779 82.9023 37.7779C82.411 38.4616 81.8663 39.1054 81.2735 39.7032C81.2814 40.7659 81.2984 42.1646 81.3133 42.7484C81.312 43.0681 81.3858 43.3836 81.5287 43.6695C81.6717 43.9555 81.8799 44.2038 82.1364 44.3946L83.3088 44.9111C81.9157 45.644 80.4861 46.3055 79.0257 46.8929C76.7225 47.7721 74.0306 48.3769 71.706 48.0331C70.8623 47.9086 69.409 47.5412 69.3692 46.6692C69.7756 46.4491 70.1764 46.219 70.5716 45.9789C70.6487 45.9396 70.7157 45.8833 70.7678 45.8142C70.818 45.7156 70.8389 45.6047 70.8283 45.4946C70.825 44.8069 70.8221 44.4956 70.8189 43.809V43.6736C68.9511 43.4476 67.2027 42.6368 65.8238 41.357C63.9415 39.6985 63.1865 37.1633 62.9823 34.3831C62.8759 32.9305 62.7923 31.3646 62.6533 29.7861C62.5432 29.1616 62.4669 28.5316 62.4246 27.8988C64.0389 26.4872 65.7021 24.8992 67.2532 23.3743C67.2075 23.7717 67.0921 24.3139 66.9922 24.8464Z" fill="white"/>
<path d="M32.3651 18.9612C32.5108 18.8544 32.6797 18.7836 32.858 18.7546C33.0363 18.7256 33.2189 18.7392 33.391 18.7944C33.4641 18.8088 33.5341 18.8365 33.5973 18.8762C33.6244 18.8921 33.7743 19.0032 33.6762 18.9214C33.7353 18.9733 33.7908 19.0292 33.8423 19.0886C33.7247 18.9598 33.8224 19.0579 33.8449 19.0999C34.1669 19.8093 34.2354 20.6079 34.0389 21.3618C33.877 22.131 33.4929 22.8358 32.9342 23.3888C32.6798 23.6416 32.3655 23.8257 32.0206 23.9239C31.6757 24.0221 31.3115 24.0311 30.9622 23.9502C30.0732 23.6642 29.6924 25.0614 30.5774 25.3463C31.0391 25.464 31.52 25.4865 31.9907 25.4125C32.4613 25.3384 32.912 25.1693 33.3153 24.9155C34.1267 24.3854 34.7501 23.6127 35.0965 22.7076C35.4591 21.8916 35.6234 21.0014 35.5758 20.1097C35.5215 19.2939 35.3079 18.4002 34.6495 17.8554C34.1736 17.4846 33.584 17.29 32.9808 17.3047C32.3777 17.3195 31.7983 17.5428 31.3411 17.9365C31.2068 18.0731 31.1315 18.2569 31.1315 18.4485C31.1315 18.6401 31.2068 18.8239 31.3411 18.9605C31.4789 19.0925 31.6623 19.1663 31.8531 19.1663C32.044 19.1663 32.2274 19.0925 32.3651 18.9605V18.9612Z" fill="#211715"/>
<path d="M15.0999 27.2213C14.8555 27.0429 15.0535 27.1927 15.1361 27.2593C15.2643 27.369 15.4029 27.4659 15.5498 27.5489C15.9789 27.7669 16.4513 27.886 16.9325 27.8975C17.8519 27.9483 18.7591 27.6681 19.4898 27.1077C19.6255 26.9719 19.7017 26.7878 19.7017 26.5959C19.7017 26.4039 19.6255 26.2198 19.4898 26.084C19.3514 25.9534 19.1683 25.8806 18.9779 25.8806C18.7876 25.8806 18.6045 25.9534 18.4661 26.084C18.6989 25.9031 18.5439 26.0236 18.4839 26.063C18.4328 26.0971 18.3803 26.1286 18.3271 26.1586C18.262 26.1948 18.195 26.2267 18.1284 26.2596C18.0162 26.315 18.2533 26.2162 18.1664 26.2448C18.1237 26.2589 18.0824 26.2773 18.0401 26.2925C17.9478 26.3251 17.8537 26.3533 17.7588 26.3776C17.6658 26.4116 17.5682 26.4318 17.4693 26.4373C17.6405 26.454 17.4827 26.4373 17.4305 26.4402C17.3694 26.4456 17.3082 26.4493 17.247 26.4514C17.1232 26.4561 16.9993 26.4544 16.8757 26.4464C16.8199 26.4494 16.7639 26.4444 16.7095 26.4315L16.7989 26.4435C16.7663 26.4388 16.7338 26.4333 16.7016 26.4272C16.621 26.4121 16.5412 26.3927 16.4627 26.3693C16.4243 26.358 16.3866 26.3439 16.3486 26.3331C16.2299 26.2862 16.0975 26.2874 15.9796 26.3364C15.8616 26.3855 15.7675 26.4786 15.717 26.5959C15.6666 26.7132 15.6638 26.8456 15.7093 26.9649C15.7548 27.0842 15.8449 27.1812 15.9607 27.2351C16.0764 27.2891 16.2087 27.2958 16.3293 27.254C16.45 27.2121 16.5496 27.1249 16.607 27.0108C16.6644 26.8967 16.6751 26.7648 16.6369 26.6429C16.5987 26.5211 16.5145 26.4189 16.4022 26.358C16.3523 26.3219 16.2824 26.3012 16.2288 26.2701C16.181 26.2422 16.1362 26.2115 16.0906 26.1803C15.965 26.0953 16.2408 26.3067 16.113 26.1963C16.0221 26.1177 15.932 26.0428 15.8332 25.9718C15.6671 25.8748 15.4692 25.8475 15.283 25.8961C15.0968 25.9447 14.9375 26.0651 14.84 26.231C14.7484 26.398 14.7243 26.5937 14.7727 26.7779C14.821 26.9621 14.9381 27.1208 15.0999 27.2213Z" fill="#211715"/>
<path d="M22.2708 19.1922C22.4847 19.7645 22.4467 21.1106 21.3492 21.2916C19.8894 21.3687 19.716 19.7525 20.1623 18.9613C20.5279 18.3148 21.6953 17.9843 22.2708 19.1922Z" fill="#211715"/>
<path d="M14.1129 19.2631C14.2844 19.8571 14.216 21.2304 13.2528 21.3625C11.9758 21.3723 11.8669 19.7149 12.2773 18.929C12.6136 18.2844 13.6419 18.0035 14.1129 19.2631Z" fill="#211715"/>
<path d="M28.3373 28.2249C28.3445 29.1086 28.3549 29.9922 28.3684 30.8756C28.3815 31.6386 28.4119 32.3705 28.8752 33.0159C29.0748 33.3353 29.3459 33.604 29.6672 33.8006C29.8554 33.8933 30.0527 33.9704 30.2445 34.054L31.3456 34.5408C31.5127 34.6319 31.7084 34.6557 31.8925 34.6074C32.0766 34.5591 32.2353 34.4423 32.3363 34.2809C32.4318 34.1148 32.4581 33.9178 32.4095 33.7325C32.3608 33.5471 32.2412 33.3884 32.0764 33.2906L31.0756 32.8494L30.4769 32.5844C30.432 32.5645 30.3838 32.5482 30.3408 32.5243C30.4798 32.5967 30.3368 32.5037 30.2865 32.4519C30.2362 32.4002 30.1507 32.3137 30.1272 32.284C30.0779 32.2196 30.0333 32.1517 29.9937 32.0809C29.9683 32.0375 29.9448 31.9933 29.9213 31.9481C29.9451 32.0118 29.9426 32.0038 29.9133 31.9249C29.8934 31.8612 29.8731 31.7975 29.8579 31.7324C29.8481 31.69 29.8402 31.6477 29.8329 31.605C29.8438 31.6918 29.8449 31.6928 29.8362 31.6078C29.8258 31.3137 29.8182 31.0193 29.8134 30.7247C29.8004 29.8912 29.7908 29.0574 29.7848 28.2235C29.7772 27.2922 28.3293 27.29 28.3369 28.2235L28.3373 28.2249Z" fill="#211715"/>
<path d="M15.7514 21.8015C15.5525 22.1716 15.3728 22.5515 15.2127 22.9399L15.2851 22.7669C15.1839 22.9582 15.1258 23.1693 15.115 23.3855C15.1139 23.5214 15.1433 23.6558 15.2011 23.7789C15.2589 23.9019 15.3435 24.0104 15.4488 24.0964C15.6048 24.2374 15.7937 24.337 15.9982 24.386C16.1303 24.4106 16.2592 24.4142 16.3913 24.4269C16.5833 24.4268 16.7674 24.3505 16.9031 24.2147C17.0388 24.079 17.1151 23.8949 17.1151 23.7029C17.1151 23.511 17.0388 23.3269 16.9031 23.1911L16.7565 23.0778C16.6458 23.0129 16.5197 22.9788 16.3913 22.979C16.3301 22.9732 16.269 22.9743 16.2078 22.9667L16.4004 22.9928C16.3571 22.986 16.3147 22.9745 16.274 22.9584L16.447 23.0308C16.4044 23.0116 16.3639 22.9881 16.3262 22.9605L16.4709 23.0738C16.4427 23.0525 16.4161 23.0292 16.3913 23.004L16.5046 23.1506C16.4928 23.1348 16.4829 23.1177 16.4753 23.0995L16.5477 23.2726C16.5433 23.2602 16.5401 23.2475 16.5383 23.2345L16.564 23.4267C16.5611 23.3993 16.5611 23.3717 16.564 23.3442L16.5379 23.5368C16.5482 23.478 16.5652 23.4205 16.5886 23.3656L16.5162 23.5386C16.5531 23.4529 16.5893 23.3669 16.6248 23.2805L16.5524 23.4535C16.6852 23.1401 16.8401 22.8342 16.9994 22.5334C17.0938 22.3635 17.1197 22.164 17.0718 21.9756C17.0206 21.7936 16.9015 21.6382 16.7392 21.5413C16.6571 21.4932 16.5663 21.4618 16.4721 21.4489C16.3779 21.4359 16.282 21.4417 16.19 21.4658C16.098 21.4899 16.0117 21.5319 15.9359 21.5894C15.8601 21.6468 15.7964 21.7187 15.7485 21.8008L15.7514 21.8015Z" fill="#211715"/>
<path d="M28.2153 29.9118C29.1396 29.1828 29.9767 28.3496 30.71 27.4287C31.2564 26.772 31.7417 26.0667 32.16 25.3218C32.2122 25.2396 32.2472 25.1478 32.2631 25.0519C32.279 24.9559 32.2754 24.8577 32.2525 24.7632C32.2296 24.6686 32.1879 24.5796 32.1298 24.5016C32.0717 24.4235 31.9985 24.358 31.9146 24.3088C31.8306 24.2597 31.7376 24.228 31.6411 24.2156C31.5446 24.2032 31.4466 24.2104 31.353 24.2367C31.2593 24.2631 31.1719 24.308 31.096 24.3689C31.0202 24.4297 30.9573 24.5053 30.9113 24.591C30.7085 24.9563 30.4863 25.3106 30.2456 25.6522C30.0237 25.978 29.8474 26.205 29.6426 26.4612C28.9204 27.3602 28.0987 28.1743 27.1932 28.8882C27.0574 29.0239 26.9812 29.208 26.9812 29.4C26.9812 29.592 27.0574 29.7761 27.1932 29.9118C27.3315 30.0425 27.5146 30.1154 27.705 30.1154C27.8953 30.1154 28.0784 30.0425 28.2168 29.9118H28.2153Z" fill="#211715"/>
<path d="M24.4853 30.5579C21.608 31.7524 18.2783 32.3402 15.3794 30.8728C14.0128 30.219 12.8508 29.2044 12.0189 27.9384C11.2597 26.6284 10.7858 25.173 10.6282 23.6672C10.3531 21.5573 10.3332 19.4105 10.1341 17.2916C10.1292 17.1011 10.0513 16.9198 9.91663 16.7851C9.78192 16.6504 9.60065 16.5726 9.41021 16.5676C9.21865 16.569 9.03534 16.6458 8.89988 16.7812C8.76443 16.9167 8.6877 17.1 8.68628 17.2916C8.87884 19.3399 8.92083 21.4053 9.1543 23.4489C9.30172 25.1518 9.78234 26.8092 10.5689 28.3267C12.2183 31.3093 15.6201 33.1087 18.9722 33.1915C21.0031 33.1965 23.0124 32.7749 24.87 31.954C25.052 31.898 25.2058 31.7747 25.3 31.6092C25.3941 31.4438 25.4216 31.2486 25.3768 31.0636C25.3249 30.8789 25.2024 30.7221 25.0357 30.6273C24.869 30.5324 24.6716 30.5071 24.4864 30.5568L24.4853 30.5579Z" fill="#211715"/>
<path d="M10.1345 17.2901C9.72551 13.5503 9.90215 9.60959 12.2933 6.4967C13.4683 4.91616 15.0094 3.64439 16.7842 2.79055C18.8612 1.83539 21.1342 1.38362 23.4186 1.47192C26.123 1.51453 28.7529 2.36489 30.9703 3.91372C31.1362 4.00939 31.3332 4.03591 31.5186 3.98755C31.7039 3.93919 31.8629 3.81984 31.961 3.65528C32.0537 3.48853 32.0785 3.2924 32.0302 3.10781C31.9818 2.92322 31.864 2.76443 31.7014 2.66459C27.5949 -0.290125 21.8006 -0.738598 17.1364 1.07629C15.055 1.86658 13.206 3.16798 11.7597 4.86059C10.3134 6.55319 9.31638 8.58256 8.86042 10.7617C8.46939 12.9162 8.4108 15.1179 8.68668 17.2901C8.69214 17.4804 8.77017 17.6613 8.90476 17.7959C9.03936 17.9305 9.22033 18.0086 9.4106 18.014C9.60219 18.0127 9.78555 17.936 9.92103 17.8005C10.0565 17.665 10.1332 17.4817 10.1345 17.2901Z" fill="#211715"/>
<path d="M23.0121 11.7474C23.6308 12.0064 24.2285 12.313 24.7998 12.6643C25.2623 12.95 25.6998 13.2744 26.1076 13.634C26.6459 14.1034 27.1446 14.6165 27.5985 15.168C28.2219 15.9393 28.7639 16.7728 29.2161 17.6554C29.6505 18.4811 30.8993 17.7499 30.4663 16.9246C29.1441 14.4046 27.1529 12.1673 24.5844 10.8798C24.3086 10.7415 24.0259 10.6199 23.7429 10.4972C23.5757 10.4064 23.3802 10.3827 23.1962 10.431C23.0122 10.4793 22.8535 10.5959 22.7525 10.7571C22.6571 10.9232 22.6308 11.1202 22.6793 11.3055C22.7279 11.4908 22.8474 11.6495 23.0121 11.7474Z" fill="#211715"/>
<path d="M10.2068 17.6351C10.2789 17.3352 10.4013 17.0497 10.5687 16.7907C10.8098 16.3665 11.0757 15.9568 11.3651 15.564C11.974 14.7074 12.6865 13.9293 13.4862 13.2474C13.6203 13.1358 13.7609 13.0321 13.9071 12.9368C14.0935 12.8156 14.2637 12.8243 13.9129 12.7421C13.5119 12.6484 13.7421 12.6599 13.7178 12.8427C13.7166 12.9126 13.7195 12.9824 13.7265 13.0519C13.7211 13.6897 13.8865 14.2942 14.5891 14.4705C15.1204 14.6037 15.5856 14.2493 16.0083 13.9793C16.4561 13.693 16.8988 13.4001 17.3509 13.1182C18.5451 12.3153 19.8759 11.7372 21.2778 11.4122C22.1914 11.2338 21.8045 9.83806 20.8927 10.0161C19.5408 10.3203 18.2506 10.8526 17.0776 11.5903C16.5741 11.8882 16.0836 12.2057 15.5935 12.5256C15.3934 12.6556 15.1932 12.7855 14.9898 12.9104C14.9485 12.9361 14.7302 13.0338 14.7281 13.0668C14.7349 12.9694 15.1041 13.1996 15.0871 13.1953C15.1566 13.3275 15.1845 13.3198 15.1707 13.1721L15.1754 13.0519C15.1794 12.3845 14.9583 11.582 14.2228 11.4007C13.6545 11.2602 13.1275 11.7022 12.7098 12.0272C11.8262 12.746 11.0388 13.5756 10.3671 14.4955C9.75396 15.299 9.04233 16.2427 8.81068 17.2489C8.60363 18.156 9.99937 18.5433 10.2071 17.6337L10.2068 17.6351Z" fill="#211715"/>
<path d="M15.5753 36.855C16.5002 36.4296 17.3965 35.9446 18.2586 35.4031C18.4216 35.3054 18.5587 35.1699 18.6584 35.0081C18.7581 34.8462 18.8175 34.6628 18.8316 34.4733C18.8522 34.2481 18.8384 34.0183 18.837 33.792C18.8348 33.3726 18.8324 32.9529 18.8297 32.5328C18.8297 32.3408 18.7535 32.1566 18.6177 32.0209C18.482 31.8851 18.2978 31.8088 18.1058 31.8088C17.9138 31.8088 17.7297 31.8851 17.5939 32.0209C17.4582 32.1566 17.3819 32.3408 17.3819 32.5328C17.3838 32.9152 17.386 33.2981 17.3884 33.6813C17.3884 33.8869 17.3931 34.0932 17.3917 34.2988C17.3917 34.3288 17.3631 34.4722 17.3942 34.3762C17.4055 34.3132 17.4313 34.2536 17.4695 34.2021C17.5317 34.1297 17.5267 34.154 17.4518 34.1996L17.3023 34.2894C16.5042 34.7664 15.685 35.2049 14.8445 35.6048C14.6795 35.7023 14.5596 35.861 14.5109 36.0465C14.4622 36.2319 14.4887 36.4291 14.5846 36.5951C14.685 36.7571 14.8437 36.8745 15.0281 36.9228C15.2125 36.9712 15.4084 36.9469 15.5753 36.855Z" fill="#211715"/>
<path d="M67.5781 140.912C67.2926 132.413 66.3185 118.293 66.1129 110.271C65.9812 105.126 65.8194 99.2955 65.6511 93.7361C65.6511 93.7361 65.4118 83.4249 65.2703 77.3127L65.6793 77.3247C66.3851 77.3453 79.0484 77.3869 85.2253 77.4112H90.8745C90.7221 85.0653 90.4705 97.7029 90.4705 97.7029C90.1108 115.557 89.3343 138.872 89.2529 142.08C88.4783 142.825 85.702 143.173 83.8053 143.274C81.7707 143.379 79.7025 143.413 77.6158 142.674C75.9145 143.18 71.0302 143.398 68.2945 142.726C68.1099 142.682 67.9441 142.581 67.8211 142.437C67.698 142.293 67.6242 142.113 67.6104 141.924C67.6017 141.596 67.5909 141.259 67.5781 140.912Z" fill="white"/>
<path d="M98.707 93.5634C97.9581 91.4376 96.7086 89.568 96.0252 87.4462C95.9108 87.0904 95.7762 86.5489 95.6604 85.9861C95.537 85.4156 95.4491 84.838 95.3972 84.2566C93.8546 84.8493 92.2537 85.2773 90.6211 85.5332L90.6479 86.4805C90.9092 88.451 90.7887 89.5974 90.8557 91.4796C90.8966 92.6259 90.6486 93.79 90.8557 94.882C90.9494 95.3729 91.1289 95.7243 91.5115 95.8593C91.681 95.9278 91.8684 95.9383 92.0445 95.8892C92.2206 95.8401 92.3756 95.7342 92.4852 95.5879C92.931 95.0878 93.2591 94.4941 93.4451 93.8504C93.9452 95.2172 94.7215 96.4662 95.7255 97.5197C96.1306 97.9721 96.8385 98.5618 97.3844 98.666C98.3345 98.847 98.972 98.6063 99.179 97.5197C99.3861 96.4331 99.0523 94.5443 98.707 93.5634Z" fill="white"/>
<path d="M84.0632 146.803C83.6577 146.466 83.1626 146.256 82.6388 146.197C82.5172 146.197 82.4003 146.203 82.2896 146.211L82.3283 144.438L82.3171 143.327C82.8155 143.321 83.3121 143.299 83.8065 143.274C85.2188 143.217 86.6216 143.017 87.9934 142.676C87.9872 143.416 87.9818 144.176 87.9818 144.176L88.0064 145.101C88.0032 145.391 88.0333 145.68 88.0962 145.964C88.1603 146.249 88.3207 146.504 88.5504 146.685L88.9316 146.959C88.0611 147.34 87.2297 147.804 86.4492 148.346C85.995 148.65 85.5349 148.359 85.1983 147.928C84.8721 147.503 84.4903 147.125 84.0632 146.803Z" fill="white"/>
<path d="M82.6246 45.2514C81.4563 45.8653 80.2549 46.4142 79.026 46.8955C76.7228 47.7747 74.0309 48.3795 71.7063 48.0357C71.015 47.9336 69.9139 47.6686 69.5161 47.0946C69.5161 47.0946 69.3833 46.9027 69.1704 46.5943C67.817 47.252 66.245 47.9995 65.2739 48.6213C62.5798 50.3497 61.3285 52.296 59.8752 55.6112C58.8092 58.086 57.4949 61.432 57.1967 63.5078C56.952 64.7873 57.0468 66.1085 57.4714 67.3399C57.743 68.015 58.155 68.6247 58.6801 69.1285C59.2051 69.6323 59.8313 70.0189 60.517 70.2624C61.9693 70.7257 63.5288 70.7329 64.9854 70.2831C65.0719 72.2536 65.1009 74.3414 65.1335 77.2574V77.3084L65.6804 77.3243C66.3862 77.345 79.0495 77.3866 85.2264 77.4109H87.7526C87.7833 78.0736 87.8127 78.698 87.8405 79.2742C87.9263 81.0609 88.1475 83.2515 88.4352 85.7805C91.4652 85.5899 94.4286 84.8083 97.1586 83.4799C96.6156 75.5471 94.8641 57.4775 94.9021 57.7913C94.5093 54.4442 94.0464 51.925 91.4634 49.6833C90.5814 48.9729 89.6253 48.3596 88.6119 47.854L83.2548 44.938C83.0384 45.0455 82.8291 45.149 82.6246 45.2514Z" fill="#F4BB67"/>
<path d="M65.6297 65.4679C65.5262 66.7793 65.4125 68.296 65.3076 69.603C64.6673 69.5498 63.9759 69.5111 63.3066 69.5031L63.6425 65.3677C63.6425 65.3677 64.8873 54.8103 64.8823 54.6141C64.8479 53.264 65.0994 52.194 65.561 50.4063C65.7968 49.4574 66.0895 48.5235 66.4373 47.6097C66.4698 47.5304 66.5185 47.4586 66.5803 47.399C66.642 47.3395 66.7155 47.2934 66.796 47.2637L68.4266 46.6483C68.46 46.6359 68.4962 46.6334 68.5309 46.6411C68.5657 46.6489 68.5974 46.6666 68.6222 46.6921C68.6471 46.7175 68.664 46.7497 68.6709 46.7846C68.6778 46.8195 68.6744 46.8557 68.6612 46.8887C68.1986 48.0933 67.8507 50.0421 67.5518 50.9789C67.2401 52.7684 67.0895 53.4822 66.813 55.4129L65.6297 65.4679Z" fill="#211715"/>
<path d="M11.2078 139.685C10.8563 130.154 9.07983 92.1365 9.26551 82.0779C9.26551 82.0779 9.30388 80.5899 9.34297 79.0635C13.6076 79.0765 33.2594 79.196 37.0918 79.2188H37.5505C37.0032 98.5925 36.5326 122 35.9846 141.352C33.5694 142.115 31.0601 142.541 28.5281 142.616C26.8496 142.641 25.1825 142.335 23.6217 141.717C23.6015 141.514 23.5808 141.309 23.5613 141.102L20.743 141.656C18.3718 142.419 14.5972 142.173 12.0443 141.874C11.8303 141.849 11.6325 141.747 11.487 141.588C11.3416 141.429 11.2583 141.223 11.2523 141.008C11.2426 140.663 11.2274 140.219 11.2078 139.685Z" fill="#BDBDBD"/>
<path d="M32.588 5.4652C36.158 9.26944 36.5696 15.4416 34.2374 20.0028C33.8143 20.8306 35.0631 21.5643 35.4877 20.7336C38.1231 15.5788 37.6446 8.7388 33.612 4.44156C32.9727 3.76071 31.9505 4.78579 32.588 5.4652Z" fill="#211715"/>
<path d="M74.2152 21.6285C74.7361 23.5965 75.2848 25.5493 76.4822 27.2219C77.5681 28.7396 78.9797 30.476 80.821 31.0739C81.7093 31.3635 82.0879 29.9652 81.2062 29.6778C80.4877 29.3877 79.8449 28.9376 79.3265 28.3617C78.6901 27.7326 78.1135 27.0456 77.6043 26.3098C76.5477 24.7895 76.0804 23.0159 75.6113 21.2423C75.3731 20.3424 73.9759 20.7243 74.2152 21.6274V21.6285Z" fill="#211715"/>
<path d="M74.358 20.8066C72.9437 22.6831 71.1037 24.1966 68.9898 25.2226C68.4694 25.4656 67.9335 25.6737 67.3855 25.8455C67.2431 25.8712 67.104 25.9131 66.9711 25.9704C67.0773 25.9506 67.1871 25.9634 67.2859 26.0072C67.3848 26.0509 67.4681 26.1235 67.5249 26.2155L67.5593 26.2984C67.5421 26.2219 67.5401 26.2262 67.5531 26.3114L67.5484 26.2412C67.5455 26.1468 67.5474 26.0523 67.5542 25.9581C67.6078 25.0919 67.8684 24.2413 67.9773 23.3806C68.0606 22.7265 67.1492 22.4688 66.7416 22.8684C64.7378 24.8353 62.7028 26.7776 60.5314 28.5621C59.8107 29.1539 60.8401 30.1728 61.555 29.5861C63.7268 27.803 65.7614 25.8578 67.7656 23.8924L66.5284 23.3824C66.4176 24.2554 66.034 25.3457 66.1042 26.3143C66.1404 26.8424 66.4234 27.3835 67.0228 27.4049C67.5955 27.4248 68.2535 27.0936 68.774 26.8847C71.3877 25.8205 73.6688 24.076 75.3806 21.8324C75.5108 21.6938 75.5833 21.5108 75.5833 21.3206C75.5833 21.1304 75.5108 20.9474 75.3806 20.8088C75.2443 20.6741 75.0604 20.5986 74.8688 20.5986C74.6772 20.5986 74.4933 20.6741 74.357 20.8088L74.358 20.8066Z" fill="#211715"/>
<path d="M70.0921 45.3297C67.9677 46.4218 65.7047 47.3064 63.8037 48.7803C62.0301 50.1558 60.7925 51.979 59.8264 53.9868C58.6678 56.3619 57.7054 58.8277 56.9488 61.3596C56.2499 63.7569 55.8883 66.6345 57.4393 68.789C59.3331 71.419 62.7902 71.8255 65.6921 70.816C66.5666 70.5115 66.1905 69.1125 65.3069 69.4199C63.0819 70.1937 60.2854 70.1391 58.7293 68.115C57.3144 66.2744 57.7553 63.7428 58.3626 61.6796C59.0606 59.358 59.9372 57.0939 60.9847 54.9076C61.8433 53.092 62.8803 51.4096 64.4397 50.1127C66.3125 48.5563 68.6746 47.6832 70.8214 46.5803C71.6503 46.1539 70.9188 44.9044 70.0906 45.3301L70.0921 45.3297Z" fill="#211715"/>
<path d="M68.891 47.4593C69.6229 48.4109 70.8684 48.673 72.0039 48.7986C73.4106 48.9231 74.8281 48.8217 76.2027 48.4982C78.8997 47.919 81.3125 46.6818 83.7731 45.4903C84.6115 45.0841 83.8781 43.8354 83.0423 44.24C80.8879 45.2836 78.7904 46.3644 76.4546 46.9548C75.2521 47.276 74.0107 47.4278 72.7662 47.4058C72.249 47.3948 71.7345 47.3285 71.2315 47.2081C70.91 47.1281 70.358 47.0123 70.1409 46.73C70.0398 46.5688 69.8811 46.4523 69.6971 46.4041C69.5131 46.3558 69.3176 46.3796 69.1505 46.4705C68.9857 46.5682 68.866 46.7269 68.8173 46.9123C68.7687 47.0976 68.795 47.2947 68.8906 47.4608L68.891 47.4593Z" fill="#211715"/>
<path d="M80.5496 39.701C80.5566 40.5442 80.5665 41.3873 80.5792 42.2304C80.5919 42.9641 80.6223 43.6689 81.0675 44.2896C81.2611 44.5991 81.5239 44.8593 81.8353 45.0498C82.0162 45.1381 82.2034 45.2119 82.3865 45.2927L83.4362 45.756C83.6033 45.847 83.7989 45.8709 83.983 45.8227C84.1671 45.7744 84.3259 45.6577 84.4269 45.4964C84.5224 45.3303 84.5487 45.1333 84.5001 44.948C84.4515 44.7626 84.3318 44.6039 84.167 44.5061L83.2151 44.0866L82.6414 43.8332C82.5986 43.8144 82.5534 43.797 82.5118 43.776C82.6566 43.8484 82.5201 43.767 82.4669 43.7134C82.4332 43.6805 82.401 43.6464 82.3695 43.6117C82.3121 43.5376 82.2954 43.5202 82.3196 43.5596C82.2726 43.4981 82.23 43.4334 82.1922 43.3659C82.1683 43.3247 82.1458 43.2823 82.1248 43.2392C82.1511 43.3078 82.1498 43.3031 82.1208 43.2251C82.102 43.1639 82.0825 43.1035 82.068 43.0412C82.0586 43.0012 82.0506 42.9606 82.0441 42.9196C82.0557 43.0116 82.0568 43.0155 82.0485 42.9312C82.0388 42.6503 82.0316 42.3694 82.0267 42.0885C82.0142 41.2922 82.005 40.4966 81.9992 39.7018C81.9916 38.7704 80.5438 38.7683 80.5514 39.7018L80.5496 39.701Z" fill="#211715"/>
<path d="M68.4213 47.9648C69.3038 47.5588 70.1591 47.096 70.9818 46.5793C71.1422 46.4829 71.2771 46.3495 71.3752 46.1901C71.4732 46.0307 71.5314 45.8501 71.545 45.6635C71.5642 45.4488 71.5515 45.2291 71.5501 45.0119C71.5479 44.6114 71.5456 44.2107 71.5432 43.8099C71.5432 43.6179 71.4669 43.4337 71.3312 43.298C71.1954 43.1622 71.0113 43.0859 70.8193 43.0859C70.6273 43.0859 70.4432 43.1622 70.3074 43.298C70.1716 43.4337 70.0954 43.6179 70.0954 43.8099C70.097 44.1754 70.0991 44.5408 70.1015 44.9059C70.1015 45.1024 70.1062 45.299 70.1048 45.4955C70.1048 45.527 70.0758 45.6642 70.1077 45.5647C70.1195 45.4975 70.1472 45.4341 70.1884 45.3797C70.2485 45.312 70.259 45.3229 70.1782 45.3721L70.0356 45.4579C69.2741 45.9128 68.4923 46.3311 67.6905 46.7128C67.5254 46.8103 67.4055 46.9691 67.3568 47.1545C67.3082 47.34 67.3347 47.5371 67.4306 47.7031C67.5309 47.8652 67.6897 47.9825 67.874 48.0309C68.0584 48.0793 68.2543 48.055 68.4213 47.963V47.9648Z" fill="#211715"/>
<path d="M66.7417 46.3861C65.7303 46.0643 64.2155 45.1087 64.3035 43.9323C64.391 43.3956 64.5108 42.8646 64.6622 42.3422C64.8399 41.5708 64.9502 40.7854 64.9919 39.9949C65.0241 39.0628 63.5763 39.0643 63.5441 39.9949C63.4954 40.8064 63.3696 41.6114 63.1684 42.399C63.0102 43.0915 62.7778 43.7684 62.8994 44.4861C63.1785 46.1356 64.8671 47.3094 66.3565 47.7822C67.2466 48.0649 67.6278 46.6677 66.7417 46.3861Z" fill="#211715"/>
<path d="M83.5563 14.9486C81.6338 13.5001 79.3517 12.6051 76.957 12.3606C74.7684 12.1544 72.5608 12.4046 70.4738 13.0953C68.5316 13.7323 66.7647 14.8137 65.3137 16.2535C63.7127 17.9242 62.5939 19.9973 62.0763 22.2527C61.5134 24.8037 61.4735 27.4423 61.959 30.0092C62.0113 30.1936 62.1341 30.3501 62.3007 30.4449C62.4673 30.5397 62.6645 30.5652 62.8498 30.5159C63.0328 30.4614 63.1876 30.3382 63.282 30.1723C63.3764 30.0063 63.4031 29.8103 63.3566 29.6251C62.6554 25.6352 63.1068 20.8931 65.9004 17.743C68.483 14.8313 72.3955 13.6028 76.2128 13.7577C78.6136 13.8825 80.9198 14.7338 82.8259 16.1988C82.9919 16.2944 83.1889 16.3207 83.3743 16.2722C83.5596 16.2236 83.7183 16.104 83.8162 15.9393C83.9087 15.7725 83.9333 15.5764 83.885 15.3919C83.8367 15.2074 83.7187 15.0486 83.5563 14.9486Z" fill="#211715"/>
<path d="M84.472 30.9143C84.6056 30.8162 84.7607 30.7514 84.9244 30.7253C85.0881 30.6993 85.2557 30.7127 85.4132 30.7645C85.4664 30.7793 85.5188 30.7963 85.5706 30.8163C85.5156 30.7956 85.5254 30.8032 85.601 30.8391C85.6372 30.8608 85.7679 30.9603 85.6687 30.8753C85.7266 30.9245 85.7737 30.9813 85.8269 31.0349C85.7031 30.91 85.799 30.9907 85.824 31.0381C86.121 31.706 86.1847 32.4544 86.005 33.1629C85.855 33.8894 85.4924 34.5549 84.9632 35.0748C84.7496 35.2801 84.4927 35.4349 84.2114 35.5279C83.8667 35.675 83.4823 35.7006 83.1212 35.6003C82.2322 35.3144 81.8518 36.7116 82.7364 36.9964C83.1802 37.1097 83.6424 37.1315 84.0949 37.0604C84.5473 36.9894 84.9806 36.8269 85.3683 36.5831C86.1465 36.0753 86.7446 35.3348 87.0771 34.467C87.4242 33.6866 87.5814 32.8351 87.5361 31.9821C87.4839 31.1967 87.278 30.3374 86.6445 29.8129C86.1852 29.4536 85.6154 29.2648 85.0324 29.2788C84.4494 29.2928 83.8893 29.5087 83.4477 29.8896C83.3133 30.0261 83.2379 30.21 83.2379 30.4016C83.2379 30.5932 83.3133 30.7771 83.4477 30.9136C83.5853 31.0457 83.7687 31.1195 83.9595 31.1195C84.1503 31.1195 84.3337 31.0457 84.4713 30.9136L84.472 30.9143Z" fill="#211715"/>
<path d="M68.0045 38.9591C67.7602 38.7806 67.9495 38.9229 68.0313 38.9899C68.1555 39.0962 68.2895 39.1903 68.4316 39.2711C68.8453 39.4813 69.3008 39.5962 69.7648 39.6074C70.6486 39.6559 71.5207 39.3863 72.2228 38.8472C72.3586 38.7115 72.4348 38.5274 72.4348 38.3354C72.4348 38.1435 72.3586 37.9594 72.2228 37.8236C72.0843 37.693 71.9012 37.6203 71.7108 37.6203C71.5205 37.6203 71.3374 37.693 71.1989 37.8236C71.433 37.6426 71.2832 37.7585 71.2231 37.7983C71.1746 37.8305 71.1247 37.8605 71.074 37.8891C71.0121 37.9235 70.9484 37.9539 70.8847 37.985C70.7761 38.0393 71.0153 37.9387 70.9296 37.9673C70.889 37.9811 70.8496 37.9984 70.8094 38.0129C70.7213 38.044 70.632 38.0709 70.5415 38.0936C70.4532 38.1285 70.3595 38.1479 70.2646 38.1508C70.3674 38.138 70.3771 38.1366 70.2936 38.1465L70.2371 38.1519C70.1788 38.1573 70.1206 38.161 70.0623 38.1631C69.9446 38.1671 69.8266 38.1653 69.7094 38.1581C69.6732 38.1555 69.578 38.1649 69.5512 38.1439L69.6453 38.1566C69.6145 38.1519 69.5838 38.1468 69.553 38.1411C69.4762 38.1267 69.4002 38.1083 69.3253 38.086C69.2891 38.0752 69.2529 38.0618 69.2167 38.0498C69.1016 38.0136 69.2443 38.0564 69.2761 38.0773C69.2265 38.0444 69.1632 38.0241 69.111 37.9937C69.0658 37.9673 69.0231 37.938 68.9797 37.9083C68.9268 37.8721 68.875 37.8033 69.0546 37.9673C69.0397 37.9539 69.0231 37.942 69.0082 37.9289C68.9196 37.8526 68.8298 37.7794 68.735 37.7118C68.569 37.6155 68.3717 37.5889 68.1861 37.6376C68.0005 37.6862 67.8417 37.8063 67.7443 37.9717C67.6527 38.1386 67.6286 38.3344 67.677 38.5186C67.7253 38.7028 67.8424 38.8615 68.0042 38.962L68.0045 38.9591Z" fill="#211715"/>
<path d="M74.8443 31.2904C75.0477 31.8334 75.0115 33.1165 73.9676 33.287C72.5787 33.3594 72.414 31.8229 72.8386 31.0704C73.1861 30.4543 74.2966 30.1408 74.8443 31.2904Z" fill="#211715"/>
<path d="M67.083 31.3577C67.2462 31.9227 67.1811 33.2291 66.2649 33.3536C65.0498 33.363 64.9463 31.7866 65.3368 31.0388C65.6568 30.4264 66.637 30.1593 67.083 31.3577Z" fill="#211715"/>
<path d="M68.6117 33.7547C68.4215 34.1095 68.2493 34.4738 68.0959 34.846L68.1683 34.6733C68.0688 34.8606 68.012 35.0675 68.0018 35.2793C68.0003 35.4131 68.0288 35.5455 68.0852 35.6669C68.1415 35.7883 68.2243 35.8955 68.3275 35.9807C68.4805 36.1185 68.6656 36.2158 68.8658 36.2638C68.9946 36.2877 69.1191 36.2913 69.2491 36.3036C69.4411 36.3036 69.6252 36.2273 69.7609 36.0915C69.8966 35.9557 69.9729 35.7716 69.9729 35.5797C69.9729 35.3877 69.8966 35.2036 69.7609 35.0679L69.6143 34.9546C69.5036 34.8896 69.3775 34.8555 69.2491 34.8558C69.1908 34.8503 69.1325 34.8514 69.0746 34.8442L69.2672 34.8699C69.2261 34.8635 69.1858 34.8527 69.147 34.8377L69.32 34.9101C69.2794 34.8918 69.2407 34.8695 69.2046 34.8435L69.3512 34.9567C69.3244 34.9364 69.2991 34.9141 69.2755 34.8901L69.3888 35.0367C69.3774 35.0218 69.3679 35.0055 69.3606 34.9882L69.433 35.1613C69.4287 35.1495 69.4257 35.1374 69.4239 35.1251L69.4496 35.3176C69.4467 35.2914 69.4467 35.2649 69.4496 35.2387L69.4236 35.4313C69.4334 35.3753 69.4496 35.3206 69.4721 35.2684L69.3997 35.4414C69.4359 35.3571 69.4721 35.2724 69.5083 35.188L69.4359 35.3611C69.5618 35.0624 69.7091 34.7718 69.8608 34.4855C69.9554 34.3156 69.9813 34.116 69.9332 33.9277C69.8815 33.7464 69.7625 33.5917 69.6006 33.4951C69.5185 33.4471 69.4277 33.4157 69.3335 33.4027C69.2393 33.3898 69.1434 33.3955 69.0514 33.4196C68.9594 33.4437 68.8731 33.4857 68.7973 33.5432C68.7215 33.6007 68.6579 33.6726 68.6099 33.7547H68.6117Z" fill="#211715"/>
<path d="M80.5242 41.3321C81.4035 40.6386 82.1999 39.8459 82.8976 38.9699C83.4195 38.3429 83.883 37.6695 84.2824 36.9581C84.3793 36.7923 84.4064 36.5948 84.3577 36.4091C84.309 36.2233 84.1885 36.0645 84.0227 35.9676C83.8569 35.8707 83.6594 35.8436 83.4737 35.8923C83.2879 35.941 83.1291 36.0615 83.0322 36.2273C82.8395 36.5751 82.6282 36.9122 82.3991 37.2372C82.3459 37.3154 82.2924 37.3936 82.2363 37.4699C82.1559 37.58 82.0742 37.6886 81.9912 37.7957C82.0527 37.7154 81.9854 37.8033 81.9583 37.8377C81.9163 37.8916 81.8736 37.9463 81.8309 37.9981C81.1438 38.8532 80.362 39.6278 79.5005 40.307C79.3648 40.4428 79.2886 40.6269 79.2886 40.8188C79.2886 41.0108 79.3648 41.1949 79.5005 41.3307C79.6389 41.4614 79.822 41.5342 80.0123 41.5342C80.2027 41.5342 80.3858 41.4614 80.5242 41.3307V41.3321Z" fill="#211715"/>
<path d="M76.9414 41.888C74.1955 43.0253 71.0298 43.582 68.2687 42.1721C66.9757 41.5469 65.879 40.579 65.0979 39.3738C64.3769 38.1142 63.9317 36.7159 63.792 35.2713C63.5494 33.2921 63.5198 31.2853 63.3334 29.2989C63.3284 29.1084 63.2505 28.9272 63.1158 28.7925C62.9811 28.6578 62.7999 28.5799 62.6094 28.575C62.4178 28.5763 62.2345 28.653 62.099 28.7885C61.9635 28.9239 61.8868 29.1073 61.8855 29.2989C62.0665 31.2368 62.1103 33.1907 62.3271 35.1265C62.465 36.7646 62.9252 38.3593 63.6812 39.819C65.2518 42.6557 68.4848 44.3743 71.6752 44.4615C73.6208 44.4719 75.5466 44.071 77.3265 43.2852C77.5085 43.229 77.6622 43.1057 77.7564 42.9402C77.8505 42.7746 77.878 42.5795 77.8333 42.3944C77.7814 42.2096 77.6588 42.0528 77.492 41.9579C77.3252 41.863 77.1278 41.8378 76.9425 41.8876L76.9414 41.888Z" fill="#211715"/>
<path d="M84.5274 17.6887C85.8835 18.9911 86.8808 20.6211 87.4231 22.4214C87.7599 23.4471 87.9609 24.5124 88.0211 25.5903C88.0412 26.7301 87.9407 27.8688 87.7214 28.9874C87.5447 30.0588 87.3999 31.1414 87.3297 32.2255C87.285 33.219 87.3137 34.2145 87.4155 35.2037C87.4977 36.3373 87.6571 37.4639 87.8926 38.5758C88.1467 39.6059 88.4726 40.6169 88.8681 41.6015C89.3146 42.6295 89.6073 43.7176 89.7368 44.8309C89.8018 45.9755 89.4834 47.1091 88.8319 48.0524C88.3153 48.831 89.5688 49.5567 90.0821 48.7832C91.349 46.8724 91.404 44.6796 90.7336 42.5411C90.405 41.4958 89.9626 40.4906 89.6286 39.447C89.286 38.3371 89.0566 37.1953 88.9441 36.0392C88.8084 34.9554 88.745 33.8639 88.7544 32.7717C88.7952 31.689 88.908 30.6103 89.0921 29.5426C89.3293 28.3526 89.4598 27.1438 89.482 25.9306C89.457 24.7539 89.2775 23.5856 88.9481 22.4557C88.3598 20.2541 87.1864 18.2528 85.5525 16.6643C84.8742 16.0262 83.8484 17.048 84.5285 17.688L84.5274 17.6887Z" fill="#211715"/>
<path d="M65.6805 78.049C67.4117 78.0964 69.147 78.0729 70.8786 78.0805C74.0617 78.0943 77.2447 78.1063 80.4276 78.1167C82.027 78.1225 83.6266 78.1285 85.2265 78.1348C86.1582 78.1384 86.1597 76.6906 85.2265 76.6869C79.375 76.6628 73.5233 76.6394 67.6713 76.6167C67.0078 76.6127 66.3432 76.6167 65.6805 76.6004C64.7484 76.5747 64.7491 78.0226 65.6805 78.0483V78.049Z" fill="#211715"/>
<path d="M65.6061 54.614C65.7642 52.8106 66.1048 51.0278 66.6225 49.2931C66.7625 48.8305 66.9424 48.3824 67.0872 47.9224C66.9251 47.9763 67.0811 47.9423 67.0872 47.9224C67.1842 47.8909 67.2791 47.85 67.3746 47.8138L68.1579 47.518C68.2625 47.4786 68.3689 47.4417 68.4725 47.3993C68.5373 47.3725 68.6896 47.3526 68.5333 47.3631L68.1677 47.2643L68.2549 47.3146L67.9954 47.0547L68.0435 47.1438L67.9447 46.7782C67.9044 46.9204 67.8523 47.059 67.7891 47.1926C67.7377 47.3537 67.6903 47.5159 67.6443 47.6788C67.5422 48.0407 67.4506 48.4085 67.3616 48.7751C67.202 49.4332 67.0308 50.0876 66.8653 50.7439C66.6891 51.4432 66.6029 52.1812 66.4799 52.8925C66.3456 53.6664 66.2265 54.442 66.1135 55.2192C66.0688 55.4042 66.0963 55.5994 66.1905 55.7648C66.2846 55.9303 66.4384 56.0536 66.6203 56.1096C66.8055 56.1592 67.0029 56.1339 67.1695 56.039C67.3362 55.9442 67.4588 55.7875 67.5107 55.6029C67.7196 54.1521 67.9248 52.6796 68.2347 51.2466C68.502 49.9083 68.851 48.5875 69.2796 47.2918C69.3685 47.1122 69.4019 46.9102 69.3756 46.7116C69.3493 46.5129 69.2645 46.3266 69.132 46.1762C69.0082 46.059 68.855 45.9774 68.6886 45.9401C68.5222 45.9028 68.3489 45.9113 68.1869 45.9645C67.8057 46.0731 67.4329 46.249 67.0615 46.3891C66.6145 46.5577 66.1425 46.6971 65.871 47.1278C65.6826 47.4838 65.5359 47.8603 65.4338 48.2499C65.289 48.6803 65.1594 49.1154 65.0382 49.553C64.5933 51.2099 64.2983 52.9035 64.1568 54.6133C64.0706 55.5406 65.5188 55.5348 65.6046 54.6133L65.6061 54.614Z" fill="#211715"/>
<path d="M16.199 36.1887C16.8675 37.0574 18.0881 37.4212 19.1265 37.6257C20.6255 37.884 22.161 37.841 23.6431 37.499C25.139 37.188 26.6028 36.7388 28.0157 36.1572C29.2558 35.6261 30.4299 34.9525 31.5144 34.1501C31.6762 34.0495 31.7933 33.8908 31.8416 33.7065C31.89 33.5222 31.8659 33.3264 31.7743 33.1594C31.6763 32.9948 31.5175 32.8754 31.3323 32.8268C31.147 32.7783 30.9501 32.8045 30.7839 32.8999C29.8256 33.6171 28.7934 34.2301 27.7051 34.7285C26.4744 35.2422 25.2031 35.6529 23.9045 35.9563C22.5561 36.328 21.1485 36.4356 19.7593 36.273C19.3118 36.2026 18.8717 36.0918 18.4442 35.9418C18.0851 35.8442 17.7475 35.68 17.4488 35.4579C17.3477 35.2968 17.1889 35.1802 17.0049 35.132C16.8209 35.0837 16.6254 35.1073 16.4581 35.198C16.2933 35.2958 16.1737 35.4547 16.1251 35.6401C16.0765 35.8255 16.1029 36.0226 16.1986 36.1887H16.199Z" fill="#211715"/>
<path d="M7.28152 64.1089C6.70459 64.4469 6.05085 64.6317 5.38238 64.646C4.71391 64.6603 4.05289 64.5034 3.46208 64.1904C2.64199 63.7031 2.03542 62.9249 1.76302 62.0106C1.31165 60.6171 1.42422 59.1602 1.59217 57.7286C1.73334 56.5265 1.86871 55.332 2.09711 54.1423C2.56839 51.7273 3.17516 49.3407 3.91453 46.9938C4.05932 46.5331 4.207 46.0741 4.36662 45.6184C4.42961 45.4374 4.4944 45.2586 4.56208 45.0801C4.59321 44.9972 4.62579 44.9147 4.65801 44.8326L4.6942 44.7468C4.76659 44.5636 4.63303 44.8792 4.70832 44.7135C5.25117 43.5754 6.00213 42.549 6.92245 41.6871C8.23023 40.4202 9.79644 39.4715 11.3384 38.5185C12.9216 37.5372 14.5505 36.6301 16.2083 35.7759C17.0368 35.3491 16.3053 34.0992 15.4775 34.5256C13.9102 35.3325 12.3686 36.187 10.8653 37.1079C9.3199 37.9868 7.85235 38.9962 6.47868 40.1249C5.27342 41.1452 4.2777 42.3899 3.54678 43.7897C3.19157 44.5631 2.89372 45.3616 2.65562 46.1787C1.84555 48.6821 1.18941 51.2326 0.690882 53.8161C0.437508 55.1416 0.292722 56.4777 0.134906 57.8169C-0.0460761 59.3603 -0.114849 60.9533 0.385385 62.4501C0.778209 63.7354 1.64731 64.822 2.81489 65.4877C3.62247 65.9041 4.52184 66.1107 5.43021 66.0885C6.33857 66.0663 7.22677 65.816 8.01305 65.3606C8.81444 64.8868 8.08544 63.6344 7.28224 64.1104L7.28152 64.1089Z" fill="#211715"/>
<path d="M29.8112 146.275C30.3888 146.587 30.8239 147.109 31.0263 147.734C31.0708 147.863 31.1444 147.98 31.2413 148.076C31.3383 148.172 31.4561 148.245 31.5856 148.288C31.715 148.331 31.8527 148.344 31.988 148.326C32.1232 148.307 32.2524 148.258 32.3656 148.182C33.2012 147.602 34.0912 147.105 35.0231 146.697L34.6152 146.403C34.3692 146.209 34.1973 145.937 34.1283 145.631C34.0627 145.131 34.0322 144.627 34.0371 144.123V141.889C32.1565 142.303 30.2424 142.546 28.3181 142.617C28.2095 142.622 28.0951 142.625 27.9771 142.624L27.9623 143.118C27.9514 143.477 27.9344 144.996 27.9207 145.869L28.2826 145.881C28.8158 145.892 29.3391 146.027 29.8112 146.275Z" fill="white"/>
<path d="M14.2306 154.848C13.0361 155.201 10.4904 155.673 9.1403 155.451C6.58917 155.031 5.87068 153.9 5.60536 152.041C5.46057 151.019 6.20187 149.837 7.04054 149.182C8.00337 148.43 10.4097 147.365 11.6675 146.556C13.0701 145.654 13.6446 144.112 16.1063 144.095C16.8432 144.113 18.3168 144.4 18.8467 145.947C18.8912 146.076 18.9648 146.193 19.0618 146.289C19.1587 146.386 19.2765 146.458 19.406 146.501C19.5354 146.545 19.6731 146.558 19.8084 146.539C19.9436 146.521 20.0728 146.471 20.186 146.395C21.0427 145.795 21.9607 145.288 22.9246 144.883C23.6778 145.491 23.9229 147.473 23.9696 148.932C23.983 149.298 23.897 149.66 23.7208 149.981C23.5445 150.301 23.2846 150.568 22.9688 150.752C22.1823 151.242 21.3449 151.645 20.4712 151.953C18.012 152.704 16.6116 154.095 14.3721 154.805C14.3277 154.819 14.2805 154.834 14.2306 154.848Z" fill="white"/>
<path d="M14.0382 154.151C13.0076 154.45 11.9504 154.647 10.8815 154.741C9.8506 154.877 8.80228 154.739 7.84098 154.343C7.49929 154.193 7.19746 153.965 6.95954 153.677C6.72162 153.389 6.55419 153.05 6.47059 152.686C6.3169 152.259 6.28249 151.798 6.37105 151.352C6.54223 150.793 6.86496 150.292 7.30347 149.905C8.06106 149.202 9.1227 148.768 10.0287 148.293C11.0045 147.84 11.9254 147.277 12.7735 146.615C13.4127 146.065 13.9698 145.371 14.7737 145.051C15.1553 144.886 15.5671 144.803 15.9827 144.806C16.3984 144.81 16.8087 144.9 17.1876 145.071C17.6311 145.292 17.9741 145.673 18.1475 146.137C18.2563 146.457 18.4593 146.736 18.7299 146.938C19.0006 147.14 19.326 147.255 19.6634 147.268C20.37 147.285 20.9567 146.741 21.5297 146.398C22.027 146.068 22.5588 145.793 23.1155 145.578L22.4111 145.392C22.7002 145.71 22.889 146.107 22.9541 146.531C23.0917 147.111 23.1778 147.702 23.2114 148.297C23.2476 148.807 23.3175 149.338 22.9942 149.776C22.6131 150.291 21.8236 150.579 21.2637 150.853C20.6342 151.161 19.9606 151.334 19.3134 151.598C18.6983 151.851 18.0982 152.14 17.5163 152.463C16.3808 153.086 15.284 153.766 14.0367 154.148C13.1481 154.419 13.5271 155.817 14.4215 155.544C16.366 154.949 17.9651 153.677 19.8401 152.938C21.6499 152.224 24.433 151.583 24.6759 149.256C24.7314 148.294 24.6412 147.329 24.4084 146.395C24.2546 145.678 23.9741 144.657 23.2882 144.256C22.8806 144.018 22.3941 144.299 22.0213 144.478C21.5811 144.688 21.1569 144.933 20.7396 145.185C20.541 145.306 20.3438 145.429 20.1481 145.554C20.0468 145.619 19.801 145.844 19.6859 145.827C19.4347 145.791 19.3674 145.296 19.2628 145.11C18.4523 143.67 16.7569 143.211 15.2167 143.445C14.4078 143.581 13.6489 143.927 13.0167 144.45C12.5027 144.857 12.072 145.36 11.5511 145.757C10.1887 146.796 8.49035 147.355 7.05589 148.288C6.27644 148.775 5.64675 149.468 5.23629 150.291C4.85287 151.118 4.78289 152.056 5.03938 152.93C6.05614 157.057 11.2985 156.451 14.4233 155.544C15.3159 155.288 14.9362 153.89 14.0382 154.151Z" fill="#211715"/>
<path d="M33.3132 144.123C33.3234 144.521 33.323 144.917 33.3581 145.313C33.3703 145.557 33.4172 145.798 33.4975 146.029C33.5586 146.201 33.6404 146.364 33.7411 146.517C33.8805 146.715 34.0525 146.887 34.2496 147.028C34.3332 147.077 34.4256 147.108 34.5214 147.12C34.6172 147.133 34.7146 147.126 34.8078 147.1C34.9891 147.049 35.1438 146.93 35.2403 146.768C35.2887 146.684 35.3199 146.592 35.3324 146.496C35.3448 146.4 35.3381 146.303 35.3127 146.21C35.2531 146.032 35.1361 145.879 34.9801 145.776L34.9515 145.754L35.0981 145.868C35.0244 145.808 34.9576 145.74 34.899 145.666L35.0123 145.81C34.9412 145.714 34.8814 145.61 34.8342 145.5L34.9066 145.673C34.8545 145.549 34.8181 145.419 34.798 145.286L34.8241 145.478C34.7787 145.027 34.7575 144.573 34.7604 144.119C34.7604 143.927 34.6841 143.743 34.5483 143.607C34.4126 143.471 34.2284 143.395 34.0364 143.395C33.8444 143.395 33.6603 143.471 33.5245 143.607C33.3888 143.743 33.3125 143.927 33.3125 144.119L33.3132 144.123Z" fill="#211715"/>
<path d="M27.2402 143.117C27.2196 143.812 27.2087 144.508 27.1877 145.203C27.1894 145.394 27.2663 145.577 27.4017 145.713C27.5371 145.848 27.7202 145.925 27.9117 145.927C28.1025 145.923 28.2845 145.846 28.4195 145.711C28.5544 145.576 28.6319 145.394 28.6356 145.203C28.6566 144.508 28.6675 143.812 28.6881 143.117C28.6865 142.926 28.6097 142.743 28.4743 142.607C28.3389 142.472 28.1557 142.395 27.9642 142.394C27.7733 142.397 27.5914 142.475 27.4565 142.61C27.3215 142.745 27.244 142.927 27.2402 143.117Z" fill="#211715"/>
<path d="M20.9022 143.436C20.8633 144.187 21.063 144.932 21.4727 145.562C21.5736 145.721 21.7275 145.839 21.907 145.895C22.0952 145.945 22.2957 145.919 22.4648 145.823C22.6274 145.727 22.7467 145.572 22.7975 145.39C22.8245 145.297 22.8321 145.2 22.8196 145.104C22.8071 145.008 22.775 144.915 22.7251 144.832C22.6234 144.698 22.5383 144.551 22.4717 144.396L22.5441 144.569C22.4582 144.355 22.3994 144.132 22.3693 143.904L22.3953 144.096C22.368 143.877 22.3535 143.657 22.3519 143.437C22.3489 143.245 22.2731 143.062 22.1398 142.925C22.0385 142.824 21.9096 142.755 21.7692 142.727C21.6287 142.699 21.4832 142.713 21.351 142.768C21.2187 142.823 21.1056 142.916 21.0261 143.035C20.9465 143.154 20.9041 143.294 20.904 143.437L20.9022 143.436Z" fill="#211715"/>
<path d="M14.562 142.86C14.6049 143.066 14.6411 143.273 14.6706 143.481L14.6445 143.289C14.6723 143.497 14.6927 143.706 14.7057 143.916C14.71 144.107 14.7855 144.29 14.9174 144.428C14.9847 144.495 15.0645 144.548 15.1523 144.585C15.2402 144.621 15.3343 144.64 15.4294 144.64C15.5245 144.64 15.6187 144.621 15.7065 144.585C15.7944 144.548 15.8742 144.495 15.9414 144.428C16.0772 144.292 16.1535 144.108 16.1535 143.916C16.1237 143.432 16.0589 142.95 15.9595 142.475C15.9218 142.338 15.8443 142.214 15.7368 142.121C15.6293 142.027 15.4966 141.967 15.3553 141.949C15.214 141.931 15.0704 141.954 14.9425 142.017C14.8146 142.08 14.708 142.179 14.6362 142.302C14.545 142.473 14.5193 142.671 14.5638 142.86H14.562Z" fill="#211715"/>
<path d="M8.54186 82.0779C8.47671 85.6661 8.58855 89.2596 8.68665 92.846C8.82636 97.9942 9.01024 103.142 9.20498 108.288C9.40888 113.657 9.62474 119.025 9.85253 124.393C10.0277 128.584 10.203 132.775 10.3785 136.966C10.4281 138.19 10.4784 139.415 10.5182 140.639C10.4929 141.066 10.5884 141.49 10.7936 141.865C11.3065 142.658 12.2806 142.633 13.1214 142.712C14.8972 142.909 16.6875 142.941 18.4691 142.806C19.3052 142.743 20.1323 142.592 20.9366 142.355C21.823 142.078 21.4433 140.68 20.5518 140.959C18.9353 141.464 17.1906 141.479 15.5129 141.422C14.6482 141.393 13.7845 141.331 12.9238 141.245C12.7189 141.225 12.1926 141.271 12.0402 141.118C11.9592 141.036 11.9751 140.923 11.9718 140.816C11.9356 139.675 11.8893 138.534 11.8433 137.393C11.6821 133.388 11.5148 129.382 11.3413 125.376C11.1227 120.152 10.9113 114.928 10.7071 109.703C10.5091 104.547 10.3216 99.391 10.1736 94.2338C10.065 90.4795 9.95316 86.7205 9.97958 82.964C9.98175 82.6679 9.98549 82.3718 9.9908 82.0758C10.0075 81.1437 8.5596 81.1437 8.54295 82.0758L8.54186 82.0779Z" fill="#211715"/>
<path d="M20.4462 92.5347C20.5606 98.8602 20.7409 105.184 20.9873 111.506C21.2468 118.17 21.5766 124.832 22.0417 131.486C22.2802 134.9 22.5553 138.313 22.8981 141.718C22.9056 141.875 22.9604 142.025 23.0554 142.15C23.1503 142.275 23.2809 142.367 23.4298 142.416C25.2629 143.148 27.239 143.452 29.2072 143.303C31.5875 143.183 33.9425 142.757 36.214 142.036C37.094 141.744 36.7168 140.345 35.8289 140.64C33.683 141.327 31.4574 141.735 29.2072 141.853C27.3691 141.994 25.5233 141.708 23.8139 141.018L24.3453 141.716C23.7129 135.438 23.2974 129.138 22.9571 122.838C22.5973 116.174 22.3245 109.505 22.1387 102.833C22.0379 99.4002 21.9561 95.9671 21.8933 92.5333C21.8767 91.6027 20.4288 91.5998 20.4455 92.5333L20.4462 92.5347Z" fill="#211715"/>
<path d="M36.8278 79.1709C36.6017 87.1795 36.3966 95.1886 36.2125 103.198C36.0136 111.477 35.8138 119.756 35.6131 128.034C35.5023 132.438 35.3856 136.841 35.2631 141.246C35.2366 142.178 36.6845 142.177 36.7109 141.246C36.9373 133.237 37.1424 125.228 37.3262 117.218C37.5248 108.94 37.7246 100.661 37.9257 92.3826C38.0364 87.9787 38.1531 83.5748 38.2757 79.1709C38.3021 78.2389 36.8542 78.2396 36.8278 79.1709Z" fill="#211715"/>
<path d="M64.9281 93.7365C65.1377 100.659 65.2449 107.589 65.5402 114.509C65.8012 120.611 66.1744 126.707 66.4907 132.808C66.6482 135.845 66.7999 138.883 66.8867 141.923C66.9135 142.852 68.3614 142.856 68.3346 141.923C68.1695 136.153 67.8108 130.388 67.4977 124.625C67.1756 118.698 66.9063 112.776 66.7485 106.843C66.6321 102.474 66.508 98.1051 66.376 93.7365C66.3478 92.807 64.8999 92.803 64.9281 93.7365Z" fill="#211715"/>
<path d="M88.6829 86.4882C91.7542 86.2638 94.7546 85.4552 97.5227 84.1058C97.6332 84.0435 97.7249 83.9525 97.788 83.8425C97.8511 83.7325 97.8834 83.6075 97.8814 83.4807C97.6053 79.4582 97.2458 75.4411 96.8868 71.4251C96.5489 67.6484 96.2006 63.8727 95.8418 60.0982C95.7694 59.3337 95.6467 58.5558 95.6246 57.7881L94.3885 58.2999L94.2021 57.9807L94.1767 57.7921C94.1826 57.9822 94.2608 58.1629 94.3953 58.2974C94.5298 58.432 94.7105 58.5101 94.9007 58.516C95.0923 58.5149 95.2758 58.4382 95.4113 58.3027C95.5468 58.1672 95.6235 57.9837 95.6246 57.7921C95.369 55.629 95.0719 53.4054 93.9386 51.499C93.3427 50.5079 92.5719 49.6332 91.6636 48.9175C90.5209 48.0831 89.3087 47.3483 88.0404 46.7211L83.5158 44.2597C82.6974 43.8138 81.9655 45.0636 82.785 45.5099L87.6219 48.1407C89.0379 48.9117 90.4767 49.6443 91.6082 50.8192C93.4391 52.7206 93.8788 55.2659 94.1782 57.7914H95.626C95.6138 57.6007 95.5392 57.4195 95.4136 57.2756C95.0075 56.7873 94.1605 57.1912 94.1778 57.7874C94.1952 58.3995 94.2929 59.0181 94.3505 59.6283C94.497 61.1775 94.6425 62.727 94.787 64.2767C95.1864 68.5681 95.5705 72.8609 95.9395 77.155C96.1172 79.2623 96.2899 81.3704 96.4347 83.4799L96.7934 82.8548C94.2534 84.0898 91.502 84.8312 88.6854 85.0396C87.7627 85.112 87.7548 86.5599 88.6854 86.4875L88.6829 86.4882Z" fill="#211715"/>
<path d="M86.232 58.4299C86.4825 65.3109 86.774 72.1905 87.1065 79.0688C87.2133 81.297 87.4544 83.5158 87.7056 85.7314C87.7111 85.9217 87.7892 86.1026 87.9238 86.2372C88.0584 86.3717 88.2393 86.4498 88.4295 86.4553C88.6211 86.4541 88.8046 86.3774 88.94 86.242C89.0755 86.1065 89.1522 85.923 89.1534 85.7314C88.3419 78.5711 88.1932 71.3455 87.9014 64.1493C87.8242 62.243 87.7504 60.3366 87.6799 58.4303C87.6459 57.5015 86.198 57.4968 86.232 58.4303V58.4299Z" fill="#211715"/>
<path d="M71.9004 145.111C72.5881 145.127 73.6689 145.79 74.4602 146.841C74.7888 147.278 75.2565 147.565 75.7111 147.259C76.5113 146.699 77.3688 146.226 78.2691 145.848C78.9728 146.416 79.2019 148.268 79.2464 149.63C79.259 149.972 79.1787 150.31 79.0141 150.61C78.8494 150.909 78.6066 151.159 78.3115 151.331C77.577 151.789 76.795 152.165 75.9793 152.453C73.6823 153.154 72.3738 154.453 70.282 155.117C68.919 155.536 67.4851 155.675 66.0669 155.524C63.6838 155.132 62.5559 153.962 62.3065 152.226C62.17 151.272 63.3222 150.281 64.1055 149.669C65.0049 148.967 66.5806 148.168 67.7551 147.413C69.0655 146.57 69.6012 145.13 71.9014 145.113" fill="white"/>
<path d="M71.9004 145.835C72.4069 145.94 72.8701 146.195 73.2306 146.567C73.7782 147.061 74.1518 147.828 74.905 148.048C75.6854 148.276 76.2682 147.744 76.8904 147.366C77.3821 147.035 77.909 146.76 78.4613 146.545L77.7569 146.358C78.0309 146.661 78.2074 147.04 78.2637 147.444C78.3949 148.015 78.4744 148.597 78.5011 149.182C78.5308 149.681 78.5576 150.179 78.1565 150.547C77.6234 150.96 77.0307 151.29 76.3988 151.525C75.7636 151.807 75.0856 151.98 74.4475 152.261C73.8843 152.51 73.3435 152.804 72.8071 153.105C71.809 153.73 70.7309 154.217 69.6022 154.553C68.4921 154.865 67.3309 154.953 66.1864 154.812C65.2388 154.659 64.2046 154.324 63.5871 153.541C63.3612 153.245 63.198 152.907 63.1075 152.546C63.037 152.351 63.0199 152.141 63.0581 151.938C63.0963 151.735 63.1884 151.546 63.3247 151.39C63.998 150.485 65.0451 149.86 65.9978 149.298C67.1108 148.641 68.251 148.051 69.1983 147.16C70.0123 146.393 70.7359 145.86 71.9014 145.835C72.832 145.815 72.8353 144.367 71.9014 144.387C71.0938 144.383 70.2988 144.587 69.5928 144.979C69.0522 145.331 68.5524 145.741 68.1026 146.204C66.9516 147.278 65.4241 147.871 64.1333 148.756C62.8759 149.619 61.3299 150.877 61.634 152.574C61.7515 153.231 62.0234 153.85 62.4273 154.38C62.8313 154.911 63.3556 155.338 63.9571 155.626C65.5305 156.386 67.2611 156.42 68.9576 156.156C70.6328 155.895 72.0759 155.178 73.5386 154.355C74.2781 153.915 75.0567 153.545 75.8646 153.248C76.8186 152.928 77.7365 152.509 78.6032 151.997C78.9701 151.791 79.2832 151.502 79.5169 151.152C79.7507 150.802 79.8985 150.402 79.9483 149.984C80.0037 149.131 79.9346 148.275 79.743 147.442C79.604 146.707 79.3698 145.846 78.782 145.335C78.3397 144.951 77.8543 145.214 77.4037 145.429C76.9779 145.637 76.563 145.866 76.1607 146.116C75.9319 146.255 75.4509 146.702 75.233 146.612C75.0556 146.54 74.901 146.231 74.778 146.085C74.6162 145.893 74.4416 145.712 74.2553 145.544C73.6237 144.904 72.7946 144.497 71.9025 144.388C70.9719 144.331 70.9752 145.779 71.9025 145.835L71.9004 145.835Z" fill="#211715"/>
<path d="M76.2522 143.639C76.2513 144.078 76.2755 144.517 76.3246 144.953C76.3537 145.275 76.4144 145.594 76.5056 145.904C76.5862 146.21 76.7498 146.488 76.9783 146.707C77.1175 146.837 77.2994 146.912 77.4901 146.918C77.6333 146.918 77.7733 146.876 77.8924 146.796C78.0115 146.717 78.1043 146.604 78.1591 146.472C78.2139 146.339 78.2283 146.194 78.2004 146.053C78.1725 145.913 78.1035 145.784 78.0023 145.683C77.974 145.658 77.9472 145.632 77.922 145.605C77.8514 145.532 78.0371 145.771 77.9867 145.687C77.9755 145.668 77.9636 145.651 77.9527 145.632C77.9296 145.592 77.9129 145.55 77.8912 145.51C78.0179 145.744 77.9238 145.587 77.8977 145.507C77.8291 145.282 77.7807 145.052 77.7529 144.819L77.779 145.012C77.7249 144.555 77.6986 144.096 77.7001 143.636C77.7001 143.444 77.6238 143.26 77.488 143.124C77.3523 142.988 77.1681 142.912 76.9761 142.912C76.7842 142.912 76.6 142.988 76.4643 143.124C76.3285 143.26 76.2522 143.444 76.2522 143.636V143.639Z" fill="#211715"/>
<path d="M70.593 144.002C70.6331 144.195 70.6664 144.388 70.6929 144.581L70.6672 144.389C70.693 144.583 70.712 144.779 70.724 144.975C70.7283 145.166 70.804 145.348 70.9361 145.486C71.0719 145.622 71.256 145.698 71.448 145.698C71.6399 145.698 71.824 145.622 71.9598 145.486C72.0272 145.419 72.0806 145.34 72.117 145.252C72.1534 145.164 72.1721 145.07 72.1719 144.975C72.1446 144.518 72.0841 144.064 71.9909 143.616C71.9531 143.478 71.8756 143.355 71.7681 143.262C71.6606 143.168 71.5279 143.109 71.3866 143.09C71.2453 143.072 71.1017 143.095 70.9738 143.158C70.8459 143.221 70.7394 143.32 70.6676 143.443L70.5952 143.616C70.5604 143.742 70.5604 143.875 70.5952 144.001L70.593 144.002Z" fill="#211715"/>
<path d="M82.6388 146.197C83.3266 146.213 84.3469 146.835 85.1983 147.927C85.5349 148.358 85.9946 148.651 86.4492 148.345C87.2494 147.785 88.1069 147.312 89.0072 146.933C89.7109 147.501 89.94 149.353 89.9845 150.716C89.9971 151.057 89.9167 151.396 89.752 151.696C89.5873 151.995 89.3444 152.244 89.0492 152.417C88.3149 152.874 87.5331 153.251 86.7174 153.539C84.4204 154.24 83.1119 155.539 81.0201 156.202C79.657 156.622 78.2229 156.76 76.8047 156.61C74.4219 156.218 73.2936 155.048 73.0442 153.312C72.9081 152.358 74.0599 151.366 74.8436 150.755C75.7431 150.053 77.3183 149.254 78.4933 148.498C79.8036 147.656 80.3393 146.215 82.6395 146.199" fill="white"/>
<path d="M89.7478 97.7032C89.6004 104.996 89.4185 112.287 89.2023 119.577C89.0349 125.494 88.8582 131.41 88.6724 137.327C88.6239 138.91 88.5707 140.494 88.5302 142.078L88.7423 141.566C88.6225 141.675 88.7785 141.571 88.688 141.61C88.6268 141.637 88.5696 141.682 88.5099 141.714C88.3943 141.775 88.2741 141.826 88.1505 141.867C87.7984 141.986 87.4391 142.083 87.0747 142.157C86.2424 142.325 85.4002 142.439 84.5533 142.499C82.4539 142.667 80.3038 142.722 78.2656 142.126C77.3694 141.865 76.9868 143.261 77.8805 143.522C80.2843 144.225 82.8814 144.141 85.3489 143.873C86.3575 143.788 87.3556 143.606 88.3293 143.33C89.0127 143.117 89.9393 142.798 89.9809 141.971C90.0758 140.077 90.0942 138.175 90.1525 136.279C90.3938 128.448 90.622 120.616 90.837 112.783C90.9704 107.756 91.09 102.729 91.1957 97.7021C91.2145 96.77 89.7666 96.7704 89.7478 97.7021V97.7032Z" fill="#211715"/>
<path d="M89.4894 85.7388C89.6447 87.6543 89.7649 89.5731 89.8076 91.494C89.8536 93.563 89.7895 95.6334 89.7479 97.7021C89.7291 98.6341 91.1769 98.6341 91.1957 97.7021C91.2374 95.6334 91.3014 93.563 91.2555 91.494C91.2127 89.572 91.0926 87.6532 90.9373 85.7388C90.8624 84.8165 89.4138 84.8082 89.4894 85.7388Z" fill="#211715"/>
<path d="M74.2078 92.1328C74.2339 94.4544 74.3526 96.7768 74.4514 99.0959C74.6203 103.099 74.8036 107.102 75.0012 111.104C75.2199 115.622 75.4491 120.139 75.689 124.656C75.897 128.573 76.1186 132.49 76.3539 136.405C76.4867 138.55 76.566 140.716 76.8295 142.848C76.8476 142.993 76.8657 143.141 76.8903 143.287C76.9425 143.471 77.0652 143.628 77.2319 143.723C77.3985 143.817 77.5958 143.843 77.7811 143.793C77.9641 143.739 78.119 143.616 78.2135 143.45C78.3079 143.284 78.3345 143.088 78.2879 142.903C78.2397 142.625 78.3013 143.058 78.2727 142.8C78.2571 142.66 78.2419 142.519 78.2281 142.379C78.1898 141.982 78.1576 141.585 78.1264 141.189C78.0294 139.945 77.9483 138.699 77.8691 137.454C77.6302 133.695 77.422 129.934 77.2175 126.174C76.9762 121.67 76.7453 117.165 76.5247 112.66C76.3235 108.55 76.1326 104.44 75.9521 100.329C75.841 97.7537 75.7183 95.1769 75.6625 92.5993C75.6593 92.4441 75.6564 92.2884 75.6549 92.1328C75.6441 91.2018 74.1962 91.1993 74.2071 92.1328H74.2078Z" fill="#211715"/>
<path d="M87.2578 144.175C87.2712 144.679 87.2578 145.193 87.3197 145.695C87.352 146.019 87.4403 146.334 87.5807 146.627C87.7248 146.9 87.932 147.134 88.1852 147.31C88.2687 147.359 88.361 147.39 88.4568 147.402C88.5525 147.415 88.6498 147.408 88.7429 147.382C88.8347 147.357 88.9207 147.314 88.9958 147.256C89.071 147.198 89.1339 147.125 89.1809 147.042C89.228 146.96 89.2583 146.868 89.2701 146.774C89.2819 146.68 89.275 146.584 89.2497 146.492C89.1895 146.315 89.0725 146.163 88.9171 146.059C89.0879 146.188 88.9815 146.108 88.9438 146.071C88.9171 146.044 88.8946 146.007 88.8657 145.983C88.938 146.078 88.9528 146.095 88.9098 146.034L88.8888 146C88.8646 145.961 88.8454 145.919 88.8233 145.878C88.7889 145.814 88.8892 146.054 88.836 145.904C88.8226 145.868 88.811 145.829 88.7998 145.79C88.7745 145.695 88.7553 145.598 88.7422 145.501L88.7679 145.693C88.7046 145.193 88.7194 144.677 88.706 144.173C88.706 143.981 88.6298 143.797 88.494 143.661C88.3582 143.525 88.1741 143.449 87.9821 143.449C87.7901 143.449 87.606 143.525 87.4702 143.661C87.3344 143.797 87.2582 143.981 87.2582 144.173L87.2578 144.175Z" fill="#211715"/>
<path d="M81.6041 144.437L81.5647 146.233C81.5647 146.425 81.641 146.609 81.7767 146.745C81.9125 146.88 82.0966 146.957 82.2886 146.957C82.4806 146.957 82.6648 146.88 82.8005 146.745C82.9363 146.609 83.0126 146.425 83.0126 146.233L83.052 144.438C83.0502 144.246 82.9734 144.063 82.838 143.928C82.7026 143.793 82.5195 143.716 82.3281 143.714C82.1372 143.718 81.9553 143.795 81.8203 143.93C81.6853 144.065 81.6079 144.247 81.6041 144.438V144.437Z" fill="#211715"/>
<path d="M82.6387 146.921C83.1347 147.023 83.5886 147.272 83.9417 147.635C84.4937 148.132 84.889 148.909 85.6451 149.132C86.4244 149.361 87.0061 148.829 87.628 148.452C88.1197 148.121 88.6465 147.845 89.1989 147.63L88.4945 147.444C88.7683 147.747 88.9448 148.126 89.0013 148.53C89.1324 149.101 89.2118 149.683 89.2387 150.268C89.2684 150.766 89.2952 151.265 88.8941 151.633C88.3608 152.046 87.768 152.375 87.1361 152.611C86.5008 152.893 85.8232 153.066 85.1851 153.347C84.6219 153.596 84.0807 153.89 83.5447 154.191C82.5465 154.816 81.4685 155.303 80.3398 155.639C79.2296 155.951 78.0685 156.039 76.924 155.898C75.976 155.744 74.9419 155.409 74.3247 154.627C74.0988 154.331 73.9356 153.992 73.8451 153.631C73.7746 153.437 73.7575 153.227 73.7957 153.024C73.8339 152.821 73.926 152.631 74.0623 152.476C74.7355 151.571 75.7827 150.946 76.7354 150.384C77.8484 149.727 78.9886 149.137 79.9359 148.245C80.7499 147.479 81.4731 146.946 82.639 146.921C83.5693 146.901 83.5725 145.453 82.639 145.473C81.8314 145.469 81.0364 145.673 80.3304 146.065C79.7897 146.417 79.2897 146.827 78.8399 147.289C77.6892 148.363 76.1613 148.957 74.8709 149.842C73.6131 150.705 72.0675 151.962 72.3712 153.66C72.4887 154.317 72.7607 154.936 73.1647 155.466C73.5687 155.997 74.0931 156.424 74.6946 156.712C76.2681 157.472 77.9986 157.505 79.6952 157.242C81.3703 156.981 82.8135 156.264 84.2762 155.44C85.0155 155.001 85.7941 154.63 86.6018 154.334C87.556 154.014 88.474 153.595 89.3408 153.083C89.7077 152.877 90.0207 152.587 90.2544 152.238C90.4882 151.888 90.636 151.488 90.6858 151.07C90.7412 150.217 90.672 149.361 90.4803 148.528C90.3416 147.793 90.1071 146.931 89.5192 146.421C89.0773 146.037 88.5919 146.3 88.1412 146.514C87.7155 146.722 87.3006 146.952 86.8983 147.202C86.6982 147.323 86.4999 147.448 86.3032 147.576C86.1475 147.677 86.1266 147.757 85.9738 147.696C85.7928 147.621 85.6299 147.31 85.5032 147.163C85.3359 146.968 85.1567 146.784 84.9665 146.612C84.342 145.98 83.5214 145.578 82.639 145.473C81.7081 145.419 81.7113 146.867 82.639 146.921L82.6387 146.921Z" fill="#211715"/>
<path d="M66.9127 142.115C67.0785 143.303 68.2882 143.501 69.2655 143.64C70.2889 143.782 71.3203 143.857 72.3534 143.867C74.1427 143.946 75.9347 143.791 77.6837 143.406C78.5854 143.173 78.2031 141.777 77.2989 142.01C75.8505 142.327 74.3687 142.465 72.8866 142.421C72.0088 142.425 71.1293 142.395 70.2555 142.312C69.8595 142.276 69.4657 142.224 69.0744 142.152C68.7396 142.09 68.3639 142.118 68.3099 141.731C68.2581 141.546 68.1355 141.39 67.9688 141.295C67.8021 141.2 67.6047 141.175 67.4195 141.224C67.2369 141.279 67.0825 141.403 66.9881 141.568C66.8938 141.734 66.8668 141.93 66.9127 142.115V142.115Z" fill="#211715"/>
<path d="M64.2604 70.2795C64.3617 72.604 64.3827 74.9315 64.4088 77.2582C64.4193 78.1891 65.8671 78.1917 65.8566 77.2582C65.8306 74.9315 65.8096 72.604 65.7082 70.2795C65.6677 69.3514 64.2198 69.3464 64.2604 70.2795Z" fill="#211715"/>
<path d="M57.8092 88.0707C57.5985 89.3278 58.0101 90.0412 58.7905 90.4032C60.3444 91.1238 63.8417 91.7707 65.7322 90.4433C66.859 89.3165 66.4413 75.9308 66.2618 70.9639C66.2487 70.6064 66.1037 70.2665 65.8548 70.0095C65.6059 69.7526 65.2707 69.5969 64.9138 69.5725C64.1399 69.5175 63.3157 69.4871 62.561 69.5077C62.2225 69.5171 61.8965 69.6384 61.6342 69.8526C61.3718 70.0668 61.1877 70.3619 61.1107 70.6917C59.901 75.833 58.3481 84.8409 57.8092 88.0707Z" fill="white"/>
<path d="M57.111 87.878C56.9416 89.0052 57.0933 90.1222 58.08 90.8269C58.8144 91.35 59.8536 91.5791 60.727 91.7376C61.8227 91.9542 62.947 91.9858 64.0531 91.831C64.8299 91.7108 65.9979 91.4296 66.4377 90.7031C66.9626 89.8344 66.9655 88.5766 67.0411 87.6025C67.1721 85.9158 67.1989 84.2204 67.2091 82.5289C67.2308 78.9125 67.1367 75.2951 67.0111 71.6808C66.9767 70.688 66.8833 69.748 65.9516 69.1666C65.3891 68.8163 64.7104 68.8275 64.0694 68.8003C63.3836 68.7188 62.6895 68.7394 62.0098 68.8615C61.4481 69.0187 60.9672 69.3838 60.6648 69.8826C60.4392 70.3421 60.2883 70.8347 60.2177 71.3417C59.9825 72.3867 59.7631 73.4349 59.5506 74.485C58.7141 78.6179 57.975 82.7714 57.2703 86.9286C57.2167 87.2449 57.1634 87.5614 57.1103 87.878C57.0649 88.0631 57.0921 88.2585 57.1864 88.4241C57.2806 88.5897 57.4347 88.7129 57.617 88.7684C57.8023 88.818 57.9996 88.7926 58.1662 88.6977C58.3328 88.6029 58.4554 88.4462 58.5075 88.2617C59.1006 84.7202 59.7316 81.1851 60.4005 77.6561C60.773 75.7106 61.1585 73.7665 61.591 71.8332C61.6364 71.4115 61.7463 70.9992 61.9168 70.6109C62.1702 70.1972 62.6223 70.2225 63.0548 70.2225C63.6755 70.1875 64.2981 70.2117 64.9142 70.2949C65.0881 70.3248 65.246 70.4146 65.3605 70.5489C65.475 70.6831 65.5388 70.8533 65.5408 71.0297C65.6588 72.3863 65.6342 73.773 65.6696 75.1336C65.7156 76.8913 65.7489 78.6497 65.7605 80.4082C65.7713 82.0888 65.7648 83.7708 65.7073 85.4507C65.683 86.1681 65.649 86.8855 65.5936 87.6011C65.5701 87.9019 65.5429 88.2023 65.5089 88.502C65.4767 88.7862 65.4807 88.7807 65.4195 89.1242C65.3847 89.3347 65.3375 89.543 65.278 89.7479C65.2581 89.8131 65.1766 90.1182 65.2498 89.8529C65.2401 89.882 65.2263 89.9095 65.2089 89.9347C65.1129 90.0744 65.2624 89.9144 65.2505 89.8985C65.2769 89.9372 65.2201 89.8652 65.2758 89.8804C65.2266 89.867 64.9475 90.0704 64.8885 90.0976C64.6658 90.1979 64.4337 90.2761 64.1957 90.331C63.7043 90.4454 63.2005 90.498 62.6961 90.4874C61.6638 90.4783 60.6395 90.3042 59.6621 89.972C59.3191 89.8973 59.0013 89.7352 58.7395 89.5014C58.6134 89.3244 58.5273 89.122 58.4873 88.9084C58.4472 88.6947 58.4541 88.4749 58.5075 88.2642C58.5523 88.0791 58.5248 87.8839 58.4307 87.7184C58.3365 87.5528 58.1827 87.4295 58.0007 87.3734C57.8159 87.3241 57.6191 87.3494 57.4527 87.4437C57.2863 87.5381 57.1636 87.6941 57.111 87.878Z" fill="#211715"/>
<path d="M62.9187 65.3675L62.5886 69.4294C62.5895 69.6212 62.666 69.8048 62.8016 69.9404C62.9372 70.076 63.1208 70.1525 63.3126 70.1534C63.5031 70.1488 63.6846 70.071 63.8194 69.9362C63.9541 69.8015 64.0319 69.62 64.0365 69.4294L64.3666 65.3675C64.3658 65.1757 64.2893 64.992 64.1537 64.8564C64.0181 64.7208 63.8344 64.6443 63.6427 64.6436C63.4521 64.6481 63.2706 64.7259 63.1359 64.8607C63.0011 64.9955 62.9233 65.1769 62.9187 65.3675Z" fill="#211715"/>
<path d="M64.9059 65.4678C64.7973 66.8353 64.6945 68.2028 64.5867 69.5703C64.5874 69.7621 64.664 69.9458 64.7995 70.0814C64.9351 70.217 65.1188 70.2935 65.3106 70.2943C65.5011 70.2896 65.6826 70.2118 65.8173 70.077C65.9521 69.9423 66.0298 69.7608 66.0345 69.5703C66.1431 68.2028 66.2459 66.8353 66.3538 65.4678C66.3528 65.2761 66.2762 65.0925 66.1407 64.957C66.0051 64.8214 65.8216 64.7448 65.6299 64.7439C65.4393 64.7485 65.2578 64.8262 65.123 64.961C64.9883 65.0958 64.9105 65.2773 64.9059 65.4678Z" fill="#211715"/>
<path d="M36.866 67.4333C36.9073 70.6256 36.9484 73.8179 36.9894 77.0101C36.9943 77.3962 36.9991 77.7823 37.0039 78.1684C36.9984 78.3034 37 78.4386 37.009 78.5735C36.9981 78.4851 37.1284 78.5235 37.0564 78.4949C37.0062 78.4873 36.9552 78.4873 36.9051 78.4949L35.3222 78.4855L30.4071 78.4562C26.1251 78.4306 21.8428 78.4058 17.5603 78.3816C15.7505 78.3715 13.9419 78.3618 12.1345 78.3527C11.4783 78.3495 10.8221 78.3465 10.1657 78.3436C9.92756 78.3436 9.68903 78.3371 9.45085 78.3407C9.32055 78.3429 9.2829 78.3733 9.24526 78.2542C9.2227 78.0641 9.22672 77.8717 9.2572 77.6827C9.35312 73.9946 9.47185 70.3077 9.5884 66.6203L9.59709 66.3554C9.62641 65.4233 8.17855 65.4244 8.14923 66.3554C8.03775 69.8488 7.93205 73.3422 7.83215 76.8357C7.80247 77.9071 7.58203 79.3278 8.89922 79.7263C9.45882 79.8957 10.1907 79.7915 10.7706 79.794C12.4576 79.8017 14.1448 79.8104 15.8323 79.8201C20.2656 79.8442 24.6988 79.8697 29.1319 79.8964L34.6193 79.929L36.491 79.9402C36.7622 79.9558 37.0342 79.9494 37.3043 79.9211C37.6412 79.8621 37.9446 79.6814 38.1568 79.4133C38.3691 79.1452 38.4753 78.8084 38.4554 78.467C38.4974 74.8876 38.3638 71.2976 38.3175 67.7167L38.3139 67.4344C38.3015 66.5034 36.8537 66.5009 36.866 67.4344V67.4333Z" fill="#211715"/>
<path d="M29.481 56.1488C29.8814 58.6065 30.6871 61.1989 32.1002 63.2795C32.666 64.0888 33.2826 64.8613 33.9462 65.5924C34.83 66.6767 35.9535 67.5408 37.2281 68.1168C37.4134 68.1666 37.6108 68.1413 37.7775 68.0465C37.9443 67.9516 38.0668 67.7947 38.1186 67.61C38.1649 67.4249 38.138 67.2291 38.0437 67.0633C37.9493 66.8974 37.7946 66.7743 37.6118 66.7196C36.5039 66.2708 35.6098 65.3079 34.8432 64.4244C34.4743 63.9987 34.1254 63.5557 33.779 63.1134C33.7066 63.0211 33.6342 62.928 33.5618 62.8365C33.5303 62.797 33.387 62.6077 33.5238 62.7916C33.4389 62.6772 33.3573 62.5605 33.2791 62.4416C31.9826 60.4598 31.2543 58.0813 30.8768 55.763C30.8247 55.5784 30.7022 55.4217 30.5355 55.3269C30.3689 55.2321 30.1716 55.2067 29.9863 55.2562C29.8034 55.3108 29.6487 55.4338 29.5543 55.5997C29.4599 55.7656 29.4331 55.9615 29.4796 56.1466L29.481 56.1488Z" fill="#211715"/>
<path d="M62.3987 64.4132C61.3736 63.9263 60.5697 61.9489 60.7238 60.323C60.8686 58.8118 61.1271 57.4099 62.2629 56.2726C63.296 55.2378 64.649 55.0057 66.1131 55.1122C66.3137 55.1346 66.7263 55.1784 66.7263 55.1784C67.4368 55.2537 68.1137 55.498 68.3714 56.0652C68.5038 56.3422 68.5268 56.6589 68.4359 56.9521C68.345 57.2453 68.1468 57.4935 67.881 57.647C68.5111 57.8718 68.9176 58.2127 68.9473 58.8165C68.977 59.4203 68.7348 59.9024 68.189 60.0182C68.5622 60.18 68.6595 60.7555 68.5814 61.1374C68.5032 61.5193 68.2556 62.1509 67.7905 62.1922C68.1162 62.4455 68.0232 62.9595 67.8839 63.4442C67.7746 63.6936 67.6145 63.9175 67.4138 64.1015C67.2131 64.2856 66.9762 64.4257 66.7183 64.5131C65.3202 65.0425 63.7708 65.0066 62.3987 64.4132Z" fill="white"/>
<path d="M62.7641 63.788C61.7778 63.278 61.4249 61.7349 61.4288 60.7243C61.4343 59.5023 61.701 58.0874 62.4785 57.1112C63.3411 56.0253 64.6409 55.7419 65.9679 55.8266C66.4807 55.8117 66.9904 55.9114 67.4599 56.1183C67.5445 56.1571 67.6169 56.2181 67.6696 56.2948C67.7223 56.3715 67.7531 56.461 67.7589 56.5539C67.7647 56.6467 67.7452 56.7394 67.7025 56.8221C67.6598 56.9047 67.5955 56.9743 67.5163 57.0232C67.3972 57.0979 67.3021 57.2051 67.2422 57.3323C67.1822 57.4594 67.1601 57.6011 67.1783 57.7404C67.1965 57.8798 67.2543 58.011 67.3449 58.1184C67.4355 58.2259 67.5551 58.3051 67.6894 58.3466C67.9181 58.4331 68.1653 58.5449 68.2211 58.8001C68.2703 59.0256 68.2233 59.2602 67.9974 59.3213C67.8626 59.3622 67.7424 59.4411 67.6513 59.5486C67.5602 59.656 67.502 59.7875 67.4838 59.9272C67.4655 60.0669 67.4879 60.2089 67.5483 60.3361C67.6087 60.4634 67.7046 60.5705 67.8244 60.6447C67.925 60.7004 67.8826 60.9379 67.8627 61.0385C67.8305 61.1554 67.788 61.2693 67.7357 61.3787C67.7194 61.4269 67.689 61.469 67.6485 61.4996C67.7358 61.4651 67.7192 61.4637 67.5985 61.4953C67.4774 61.5303 67.3674 61.5961 67.2793 61.6862C67.1912 61.7764 67.128 61.8879 67.0958 62.0097C67.0636 62.1316 67.0635 62.2598 67.0956 62.3817C67.1277 62.5036 67.1909 62.6151 67.2789 62.7053C67.3126 62.7372 67.3086 62.5493 67.2872 62.794C67.2779 62.8818 67.2618 62.9687 67.2391 63.0539C67.2226 63.1896 67.1648 63.3169 67.0737 63.4188C66.6985 63.7781 66.2148 64.0029 65.6982 64.058C64.7168 64.276 63.6918 64.1822 62.7663 63.7894C62.5993 63.698 62.4036 63.6739 62.2194 63.7223C62.0352 63.7706 61.8765 63.8876 61.776 64.0493C61.6805 64.2154 61.6542 64.4124 61.7028 64.5977C61.7513 64.783 61.8708 64.9417 62.0355 65.0396C63.5754 65.7367 65.3279 65.7989 66.9133 65.2127C67.5871 64.9856 68.1493 64.5107 68.4857 63.8843C68.8114 63.1994 68.8922 62.2431 68.3047 61.6817L67.9851 62.8914C69.4329 62.6141 69.8441 60.1097 68.557 59.3945L68.384 60.7174C68.7966 60.5981 69.1529 60.3351 69.3884 59.976C69.624 59.6168 69.7232 59.1852 69.6682 58.7592C69.5958 57.804 68.9164 57.2683 68.0756 56.9494L68.2486 58.2724C68.541 58.0924 68.7814 57.8394 68.9464 57.5383C69.1113 57.2372 69.1951 56.8983 69.1894 56.5551C69.1837 56.2118 69.0887 55.8759 68.9139 55.5804C68.739 55.285 68.4903 55.0401 68.1921 54.8699C67.6462 54.6002 67.0494 54.4487 66.4409 54.4254C65.7286 54.3427 65.0083 54.3576 64.2999 54.4696C63.5688 54.5958 62.8765 54.8886 62.2766 55.3253C61.6768 55.7619 61.1854 56.3308 60.8406 56.9878C60.1903 58.2688 59.8996 59.7023 59.9994 61.1355C60.1127 62.5407 60.6893 64.344 62.0351 65.04C62.8593 65.4657 63.5927 64.2165 62.7641 63.788Z" fill="#211715"/>
<path d="M68.0735 56.9491C67.4744 56.8698 66.8709 56.8285 66.2666 56.8253C65.6644 56.7906 65.0603 56.8308 64.468 56.9447C64.2836 56.9971 64.1272 57.1197 64.0324 57.2863C63.9376 57.4528 63.9121 57.6499 63.9612 57.8352C64.0155 58.0183 64.1385 58.1734 64.3046 58.2679C64.4706 58.3623 64.6668 58.3889 64.852 58.3419C64.8991 58.3307 64.9468 58.322 64.9946 58.3129C65.1517 58.284 64.8024 58.3321 64.974 58.3158C65.0992 58.3039 65.2245 58.2934 65.3504 58.2869C65.6552 58.2713 65.9603 58.2699 66.2655 58.2742C66.5706 58.2786 66.8649 58.2894 67.1639 58.3072C67.2913 58.3151 67.4172 58.3238 67.5457 58.335C67.6 58.3397 67.6543 58.3452 67.7083 58.351L67.7868 58.3596C67.8954 58.3712 67.5794 58.3311 67.6876 58.3463C67.8762 58.3908 68.0745 58.365 68.2454 58.2739C68.3684 58.202 68.4674 58.0955 68.5301 57.9676C68.5929 57.8397 68.6165 57.6962 68.598 57.5549C68.5795 57.4137 68.5198 57.2811 68.4263 57.1736C68.3328 57.0662 68.2097 56.9887 68.0724 56.9509L68.0735 56.9491Z" fill="#211715"/>
<path d="M68.1825 59.354C67.0649 59.1244 65.92 59.0573 64.7833 59.1546C64.5913 59.1546 64.4071 59.2308 64.2714 59.3666C64.1356 59.5024 64.0593 59.6865 64.0593 59.8785C64.0593 60.0705 64.1356 60.2546 64.2714 60.3904C64.4071 60.5261 64.5913 60.6024 64.7833 60.6024C65.3213 60.5599 65.8617 60.5551 66.4005 60.5879C66.6691 60.6019 66.9372 60.6238 67.2048 60.6534C67.2681 60.6607 67.3311 60.6705 67.3941 60.6766C67.3297 60.6701 67.2493 60.656 67.3612 60.673L67.4495 60.6864C67.566 60.7048 67.6822 60.7258 67.7977 60.7501C67.8894 60.7754 67.9851 60.7823 68.0795 60.7706C68.1738 60.7588 68.2649 60.7286 68.3476 60.6817C68.4303 60.6347 68.5029 60.5719 68.5614 60.4969C68.6198 60.4219 68.6629 60.3361 68.6881 60.2444C68.7134 60.1528 68.7203 60.057 68.7086 59.9627C68.6969 59.8683 68.6667 59.7772 68.6197 59.6945C68.5727 59.6118 68.51 59.5392 68.4349 59.4808C68.3599 59.4223 68.2741 59.3793 68.1825 59.354Z" fill="#211715"/>
<path d="M67.9825 61.4938C67.4985 61.3612 67.0001 61.2883 66.4984 61.2766C65.9648 61.2461 65.4296 61.2582 64.8978 61.3128C64.7071 61.3188 64.5251 61.3942 64.386 61.5249C64.2848 61.6262 64.2159 61.7552 64.188 61.8956C64.1601 62.036 64.1744 62.1815 64.2292 62.3138C64.284 62.446 64.3767 62.5591 64.4957 62.6386C64.6148 62.7182 64.7547 62.7606 64.8978 62.7607C65.4142 62.7086 65.9339 62.6965 66.4521 62.7245C66.573 62.7306 66.6936 62.7386 66.8141 62.7495C66.8716 62.7545 66.9292 62.76 66.9867 62.7665C67.0229 62.7701 67.0562 62.7744 67.091 62.7784C67.1927 62.7904 67.0414 62.7733 67.0186 62.769C67.2138 62.7991 67.4072 62.8402 67.5977 62.8921C67.783 62.9414 67.9802 62.9159 68.1468 62.8211C68.3134 62.7263 68.436 62.5698 68.4882 62.3853C68.535 62.2002 68.5084 62.0041 68.414 61.8381C68.3195 61.6722 68.1645 61.5492 67.9814 61.4949L67.9825 61.4938Z" fill="#211715"/>
<path d="M37.9017 53.7084C38.9691 54.9464 40.0275 56.1922 41.0591 57.4602C41.1952 57.5954 41.3793 57.6713 41.5711 57.6713C41.7629 57.6713 41.947 57.5954 42.0831 57.4602C42.214 57.3219 42.2869 57.1386 42.2869 56.9482C42.2869 56.7578 42.214 56.5745 42.0831 56.4362C41.0515 55.1693 39.9931 53.9224 38.9253 52.6844C38.7891 52.5497 38.6051 52.4741 38.4135 52.4741C38.2219 52.4741 38.038 52.5497 37.9017 52.6844C37.7703 52.8225 37.697 53.0058 37.697 53.1964C37.697 53.387 37.7703 53.5704 37.9017 53.7084Z" fill="#211715"/>
<path d="M31.288 34.3425C33.1871 35.2787 35.0376 36.3102 36.8326 37.4333C38.376 38.4019 40.054 39.4024 41.3158 40.7355C42.491 42.0603 43.2606 43.6951 43.5329 45.445C43.8492 47.0952 44.1909 48.7425 44.4066 50.4097C44.635 52.1768 44.7255 53.9569 44.8649 55.7305C45.0249 57.4631 45.091 59.2031 45.0629 60.9428C45.0501 61.8911 44.95 62.8362 44.7639 63.7661C44.618 64.6523 44.2848 65.4972 43.7866 66.2445C42.9016 67.4006 41.2529 67.6124 39.9016 67.435C39.0102 67.3311 38.1608 66.9984 37.4359 66.4693C36.6483 65.8195 35.9624 65.0555 35.401 64.2027C34.2402 62.5999 33.2973 60.8596 32.2924 59.158C31.8186 58.3562 30.5666 59.0838 31.0422 59.8888C31.9978 61.5071 32.8933 63.1667 33.9835 64.7007C35.1512 66.3437 36.4449 67.9609 38.4411 68.5904C40.0858 69.1395 41.8771 69.048 43.4572 68.3341C45.1827 67.4795 45.9095 65.5622 46.2353 63.7734C46.5424 61.8432 46.6204 59.8834 46.4677 57.9349C46.3627 56.0998 46.2291 54.2581 46.0695 52.4269C45.8966 50.5346 45.6271 48.6523 45.262 46.7875C45.081 45.8345 44.9456 44.8514 44.6799 43.9175C44.4059 42.9568 43.9991 42.039 43.4713 41.1908C42.2895 39.301 40.4377 38.0616 38.6091 36.8556C36.4919 35.4657 34.2905 34.2085 32.0177 33.0912C31.1852 32.6796 30.4508 33.9277 31.2869 34.3414L31.288 34.3425Z" fill="#211715"/>
<path d="M5.50593 61.3219C4.44284 60.8151 3.60852 58.7649 3.7685 57.0786C3.91727 55.5102 4.18693 54.0562 5.36513 52.8762C6.43726 51.8022 7.84096 51.5622 9.36012 51.6723C9.56825 51.6954 9.99609 51.7407 9.99609 51.7407C10.733 51.8189 11.4356 52.0722 11.7028 52.6608C11.8399 52.948 11.8638 53.2763 11.77 53.5803C11.6761 53.8844 11.4712 54.142 11.196 54.3019C11.8497 54.535 12.2714 54.889 12.3022 55.5152C12.3329 56.1414 12.0817 56.6413 11.5156 56.7618C11.9029 56.9298 12.005 57.527 11.9225 57.9234C11.8399 58.3197 11.5858 58.9731 11.1019 59.0176C11.4414 59.2818 11.3433 59.8139 11.1985 60.3163C11.0853 60.575 10.9192 60.8073 10.711 60.9981C10.5029 61.189 10.2571 61.3342 9.98958 61.4247C8.53852 61.9747 6.93025 61.9378 5.50593 61.3219Z" fill="white"/>
<path d="M5.87159 60.6968C4.87112 60.1813 4.49613 58.6336 4.47405 57.6071C4.44835 56.3163 4.73756 54.7903 5.54619 53.7561C6.44892 52.6025 7.81317 52.2967 9.2136 52.3864C9.70681 52.3861 10.1965 52.47 10.6615 52.6344C11.0958 52.828 11.2992 53.3898 10.8298 53.6768C10.7107 53.7515 10.6155 53.8587 10.5556 53.9859C10.4957 54.113 10.4735 54.2547 10.4917 54.394C10.5099 54.5334 10.5678 54.6646 10.6584 54.772C10.749 54.8795 10.8685 54.9587 11.0028 55.0002C11.2468 55.0921 11.5095 55.213 11.574 55.4856C11.6315 55.7314 11.5707 55.9967 11.3206 56.0647C11.1858 56.1055 11.0656 56.1844 10.9744 56.2918C10.8833 56.3992 10.8251 56.5307 10.8069 56.6703C10.7886 56.81 10.811 56.952 10.8715 57.0793C10.9319 57.2065 11.0278 57.3136 11.1476 57.3877C11.2779 57.4601 11.2174 57.7497 11.1888 57.8677C11.1639 57.981 11.1213 58.0897 11.0625 58.1898C11.0411 58.2304 11.0147 58.2683 10.984 58.3024C10.9116 58.3806 11.1154 58.2818 10.9069 58.3201C10.7857 58.3551 10.6757 58.4208 10.5876 58.511C10.4994 58.6012 10.4362 58.7127 10.404 58.8346C10.3719 58.9565 10.3719 59.0847 10.404 59.2066C10.4362 59.3285 10.4995 59.44 10.5876 59.5302C10.6285 59.5696 10.5807 59.8226 10.5362 59.987C10.5134 60.1072 10.4574 60.2187 10.3744 60.3088C10.0179 60.7431 9.40183 60.8836 8.87951 60.9896C7.87041 61.2032 6.82003 61.1012 5.87087 60.6975C5.70382 60.6061 5.50813 60.582 5.32392 60.6303C5.13971 60.6785 4.98094 60.7954 4.88017 60.957C4.78482 61.1232 4.75863 61.3203 4.80725 61.5056C4.85587 61.6909 4.97541 61.8497 5.14006 61.9477C6.70327 62.6546 8.47952 62.7286 10.0961 62.154C10.823 61.929 11.4329 61.4281 11.7948 60.7587C12.1205 60.0572 12.2125 59.081 11.6113 58.5062L11.2916 59.7162C12.7757 59.4422 13.1865 56.8643 11.8784 56.1375L11.7054 57.4608C12.1361 57.3347 12.5062 57.0564 12.7469 56.6776C12.9876 56.2988 13.0823 55.8454 13.0135 55.402C12.9205 54.4511 12.2241 53.9204 11.3847 53.6048L11.5573 54.9278C11.8654 54.7376 12.1169 54.4685 12.2857 54.1482C12.4546 53.828 12.5345 53.4684 12.5174 53.1067C12.5002 52.7451 12.3865 52.3947 12.188 52.0919C11.9896 51.7891 11.7137 51.545 11.389 51.3849C10.8047 51.1356 10.1799 50.9948 9.54516 50.9694C8.82977 50.8915 8.1069 50.9169 7.39872 51.0446C6.65513 51.1859 5.95337 51.4943 5.34645 51.9465C4.73952 52.3988 4.2433 52.983 3.89527 53.6551C3.55615 54.3189 3.32462 55.0323 3.20935 55.7686C3.05787 56.5065 3.0036 57.2609 3.04791 58.0128C3.18473 59.4339 3.77474 61.2462 5.13862 61.9488C5.96787 62.373 6.70085 61.1239 5.87159 60.6968Z" fill="#211715"/>
<path d="M11.387 53.6041C10.7677 53.5224 10.1439 53.4798 9.51927 53.4767C8.897 53.4407 8.27268 53.4821 7.66059 53.5997C7.47624 53.6521 7.31983 53.7747 7.22505 53.9413C7.13027 54.1078 7.10469 54.3049 7.15384 54.4902C7.20818 54.6733 7.33125 54.8283 7.49728 54.9227C7.66332 55.0172 7.85945 55.0438 8.04463 54.9969C8.09349 54.985 8.14308 54.9759 8.19267 54.9669C8.35194 54.9372 8.00409 54.9853 8.17856 54.9669C8.3085 54.9546 8.43845 54.9433 8.56875 54.9368C8.88511 54.9209 9.20183 54.9191 9.51818 54.9238C9.82911 54.9285 10.14 54.9394 10.4506 54.9582C10.5827 54.9661 10.7148 54.9752 10.8466 54.9868C10.9027 54.9918 10.9592 54.9973 11.0149 55.0031L11.0967 55.0125C11.2053 55.0241 10.8911 54.9839 11.0008 54.9994C11.1893 55.044 11.3876 55.0182 11.5586 54.9271C11.6816 54.8552 11.7806 54.7487 11.8433 54.6209C11.9061 54.493 11.9297 54.3495 11.9113 54.2083C11.8929 54.067 11.8332 53.9344 11.7397 53.8269C11.6463 53.7195 11.5232 53.6419 11.3859 53.6041H11.387Z" fill="#211715"/>
<path d="M11.4998 56.099C10.3425 55.8615 9.15708 55.7921 7.98003 55.8931C7.78803 55.8931 7.6039 55.9693 7.46814 56.1051C7.33237 56.2409 7.2561 56.425 7.2561 56.617C7.2561 56.809 7.33237 56.9931 7.46814 57.1289C7.6039 57.2647 7.78803 57.3409 7.98003 57.3409C8.53835 57.2968 9.09907 57.2917 9.6581 57.3257C9.93681 57.3406 10.2155 57.3619 10.4928 57.3941C10.5583 57.4014 10.6235 57.4119 10.689 57.418C10.6195 57.4115 10.5518 57.3988 10.6622 57.4151L10.7538 57.4289C10.8744 57.4479 10.9951 57.47 11.1157 57.4951C11.3009 57.5461 11.4987 57.5215 11.6657 57.4267C11.8327 57.3319 11.9551 57.1746 12.0062 56.9895C12.0572 56.8043 12.0326 56.6065 11.9377 56.4395C11.8429 56.2725 11.6856 56.1501 11.5005 56.099H11.4998Z" fill="#211715"/>
<path d="M11.2928 58.3196C10.7932 58.1827 10.2788 58.1075 9.76094 58.0955C9.20741 58.0636 8.65222 58.0757 8.10061 58.1317C7.90979 58.1379 7.72774 58.2133 7.58843 58.3438C7.48747 58.4451 7.41876 58.574 7.39099 58.7143C7.36321 58.8546 7.3776 58.9999 7.43235 59.132C7.4871 59.2642 7.57976 59.3771 7.69862 59.4566C7.81749 59.5361 7.95724 59.5787 8.10025 59.5788C8.63597 59.5245 9.17508 59.5115 9.7128 59.5401C9.83804 59.5461 9.96304 59.5547 10.0878 59.5658C10.1475 59.5712 10.2072 59.577 10.2688 59.5835L10.3774 59.5962C10.4791 59.6078 10.3354 59.5919 10.3104 59.5871C10.5124 59.6188 10.7125 59.6615 10.9098 59.7149C11.095 59.7643 11.2922 59.7388 11.4588 59.644C11.6254 59.5491 11.7481 59.3926 11.8002 59.2082C11.8472 59.023 11.8206 58.8269 11.7262 58.6609C11.6317 58.4949 11.4766 58.3719 11.2935 58.3177L11.2928 58.3196Z" fill="#211715"/>
<path d="M8.23028 51.9414C8.79603 48.5726 9.50041 45.2269 10.1414 41.8715L9.44358 42.4033C12.353 42.7247 15.3074 43.0714 18.1734 43.673L17.6421 42.9752C17.14 47.6633 16.5066 52.3392 15.8826 57.0125C15.7551 57.9666 15.6263 58.9206 15.496 59.8745L16.3864 59.3678C14.923 59.1633 13.4639 58.92 12.0103 58.6547C11.0996 58.4886 10.7072 59.8854 11.6255 60.0508C13.0791 60.3161 14.5382 60.5594 16.0016 60.7639C16.3473 60.8124 16.8342 60.6839 16.8921 60.2571C17.5166 55.6942 18.1109 51.127 18.6751 46.5553C18.8199 45.3609 18.9618 44.1682 19.0899 42.9719C19.09 42.8134 19.038 42.6592 18.9419 42.533C18.8459 42.4069 18.7111 42.3158 18.5582 42.2737C17.0017 41.9479 15.4127 41.7412 13.8371 41.5215C12.3748 41.3174 10.911 41.1143 9.44358 40.9521C9.28508 40.9521 9.13093 41.004 9.00479 41.1C8.87866 41.196 8.78752 41.3307 8.74535 41.4835C8.10431 44.8386 7.39993 48.1842 6.83418 51.5533C6.78881 51.7384 6.81605 51.9338 6.9103 52.0994C7.00454 52.2651 7.15865 52.3883 7.34093 52.4438C7.52617 52.4933 7.72346 52.4679 7.89011 52.3731C8.05675 52.2782 8.17935 52.1216 8.23136 51.937L8.23028 51.9414Z" fill="#211715"/>
<path d="M38.7344 76.0968C40.5214 75.981 42.3902 76.0584 44.1414 75.6472C45.1614 75.4412 46.1089 74.9696 46.8883 74.2801C47.6677 73.5906 48.2513 72.7076 48.5801 71.7203C48.8429 70.8338 49.0154 69.9231 49.0952 69.002C49.2262 67.9291 49.3171 66.8512 49.3848 65.7725C49.5466 63.2518 49.5915 60.7238 49.5929 58.1981C49.5958 53.2171 49.408 48.2386 49.2259 43.2616C49.1426 40.9921 49.1535 38.5163 47.7534 36.5932C46.5727 34.9694 44.5099 34.2766 42.6609 33.7217C40.6075 33.1219 38.5127 32.6743 36.3935 32.3824C34.6503 32.1291 32.8973 32.0458 31.1389 31.9673L30.5999 31.9441C29.6683 31.9061 29.6701 33.3539 30.5999 33.392C32.0478 33.4513 33.5072 33.494 34.95 33.6435C36.755 33.8463 38.5452 34.1634 40.31 34.5929C42.1488 35.0273 44.1638 35.5163 45.7463 36.599C47.377 37.7145 47.6647 40.1227 47.7331 42.0219C47.8967 46.6655 48.0868 51.3081 48.1338 55.9546C48.1802 60.5295 48.229 65.2075 47.5453 69.7454C47.3006 71.3699 46.7457 72.8847 45.2244 73.7151C44.7396 73.9695 44.2217 74.155 43.6857 74.2664C43.5192 74.3026 43.3516 74.3351 43.1833 74.3648C43.1789 74.3648 42.9299 74.401 43.0805 74.3822C43.189 74.3673 43.0931 74.3822 43.0725 74.3822C42.8879 74.4025 42.7033 74.4184 42.5183 74.4321C41.5827 74.5045 40.6452 74.5469 39.7084 74.595C39.3826 74.6117 39.0569 74.6272 38.7329 74.6482C37.8077 74.7083 37.8012 76.1565 38.7329 76.0961L38.7344 76.0968Z" fill="#211715"/>
<path d="M46.1739 40.2137C46.3783 40.1999 46.5836 40.2064 46.7867 40.2328L46.5945 40.2071C46.8585 40.2441 47.1167 40.3146 47.363 40.4167L47.1899 40.3443C47.3218 40.4007 47.4497 40.4657 47.5729 40.5391C47.7387 40.636 47.9362 40.6631 48.1219 40.6144C48.2139 40.5902 48.3002 40.5482 48.376 40.4908C48.4517 40.4333 48.5154 40.3614 48.5634 40.2794C48.6114 40.1973 48.6427 40.1065 48.6557 40.0123C48.6686 39.9181 48.6628 39.8223 48.6387 39.7303C48.6146 39.6383 48.5726 39.552 48.5151 39.4763C48.4576 39.4005 48.3858 39.3368 48.3037 39.2888C47.6622 38.9052 46.9201 38.7232 46.1739 38.7665C45.9829 38.7709 45.8003 38.8464 45.6621 38.9783C45.5948 39.0455 45.5415 39.1253 45.5051 39.2132C45.4687 39.301 45.45 39.3952 45.45 39.4903C45.45 39.5854 45.4687 39.6795 45.5051 39.7674C45.5415 39.8552 45.5948 39.935 45.6621 40.0023C45.7291 40.0697 45.8089 40.1232 45.8967 40.1596C45.9846 40.1961 46.0788 40.2147 46.1739 40.2144V40.2137Z" fill="#211715"/>
<path d="M26.8389 156.495C26.7448 156.529 26.6496 156.56 26.5526 156.591C25.4305 156.947 23.4463 157.259 22.0397 157.028C19.4889 156.608 18.2796 155.355 18.0139 153.497C17.8691 152.475 19.0998 151.414 19.9403 150.759C20.9031 150.007 22.5898 149.152 23.8473 148.343C25.2503 147.442 25.8244 145.899 28.2864 145.882C29.023 145.9 30.4969 146.188 31.0265 147.735C31.071 147.864 31.1446 147.981 31.2415 148.077C31.3385 148.173 31.4563 148.245 31.5857 148.289C31.7152 148.332 31.8529 148.345 31.9881 148.326C32.1234 148.308 32.2526 148.259 32.3658 148.182C33.2225 147.583 34.1405 147.076 35.1044 146.67C35.8576 147.278 36.103 149.261 36.1497 150.719C36.1631 151.085 36.077 151.447 35.9007 151.768C35.7244 152.088 35.4644 152.355 35.1485 152.54C34.3621 153.029 33.5246 153.432 32.651 153.741C30.2993 154.458 28.9155 155.762 26.8389 156.495Z" fill="white"/>
<path d="M26.6463 155.797C24.675 156.476 22.1431 156.772 20.2547 155.696C19.5772 155.324 19.0735 154.701 18.8532 153.96C18.7744 153.784 18.7365 153.592 18.7424 153.398C18.7483 153.205 18.7978 153.016 18.8872 152.844C19.2023 152.361 19.5987 151.935 20.0589 151.587C21.7373 150.185 23.8595 149.455 25.4572 147.943C26.0751 147.358 26.677 146.854 27.5313 146.676C27.8933 146.58 28.2716 146.563 28.6408 146.626C29.0099 146.689 29.3613 146.83 29.6712 147.04C30.1418 147.378 30.2098 147.845 30.5012 148.304C30.6737 148.573 30.9214 148.784 31.2135 148.913C31.5056 149.042 31.8292 149.082 32.1438 149.028C32.7591 148.921 33.3053 148.426 33.8327 148.114C34.2931 147.814 34.7838 147.564 35.2969 147.367L34.5925 147.181C35.2567 147.76 35.32 149.113 35.3844 149.954C35.4225 150.455 35.5129 151.004 35.2436 151.458C34.9277 151.989 34.1939 152.261 33.6677 152.53C33.0288 152.822 32.3749 153.079 31.7087 153.301C31.1047 153.537 30.5158 153.809 29.9452 154.117C28.8564 154.7 27.8132 155.375 26.6463 155.797C25.7776 156.112 26.1522 157.512 27.0314 157.193C28.8376 156.54 30.3752 155.347 32.1662 154.67C33.1905 154.317 34.1857 153.884 35.1427 153.377C36.0476 152.866 36.7215 152.182 36.8493 151.108C36.909 150.212 36.8387 149.313 36.6405 148.438C36.5018 147.685 36.2785 146.842 35.7356 146.271C35.0753 145.576 34.0658 146.311 33.4038 146.687C33.0194 146.907 32.6415 147.137 32.2701 147.378C32.1108 147.481 31.8984 147.724 31.7232 147.541C31.5893 147.401 31.5382 147.071 31.4409 146.898C31.3413 146.726 31.2264 146.562 31.0977 146.411C30.8431 146.104 30.5338 145.848 30.1856 145.655C29.62 145.349 28.9907 145.179 28.3479 145.16C27.5036 145.133 26.6674 145.332 25.9252 145.735C25.3403 146.094 24.803 146.525 24.3261 147.019C23.0592 148.213 21.3891 148.865 19.9662 149.847C19.1877 150.357 18.4942 150.987 17.911 151.712C17.6372 152.048 17.4482 152.444 17.36 152.869C17.2718 153.293 17.287 153.732 17.4043 154.149C18.4141 158.268 23.8041 158.304 27.0325 157.193C27.907 156.892 27.5309 155.493 26.6463 155.797Z" fill="#211715"/>
<path d="M89.9233 86.482C90.0608 87.7229 90.1222 88.9712 90.1072 90.2196C90.1119 90.9276 90.1535 91.6356 90.1192 92.3429C90.0531 93.0505 90.0383 93.7619 90.075 94.4716C90.1311 95.0508 90.2332 95.7059 90.6578 96.145C90.8573 96.3488 91.1065 96.4973 91.3807 96.5758C91.655 96.6543 91.945 96.6601 92.2222 96.5927C92.7908 96.4512 93.0721 96.019 93.3736 95.6176C93.7148 95.1593 93.9711 94.6435 94.1304 94.0948C94.3969 93.1997 92.9997 92.8174 92.7344 93.7097C92.6161 94.1047 92.4295 94.4759 92.1831 94.8064C92.0901 94.9335 91.95 95.2535 91.778 95.1955C91.5287 95.1116 91.5225 94.5078 91.5095 94.3047C91.4888 93.7366 91.5033 93.1677 91.5529 92.6013C91.6126 91.5712 91.5576 90.5356 91.5529 89.504C91.5545 88.4939 91.4941 87.4847 91.3719 86.482C91.3659 86.2919 91.2877 86.1112 91.1533 85.9767C91.0188 85.8422 90.8381 85.764 90.648 85.7581C90.4563 85.7591 90.2728 85.8357 90.1373 85.9712C90.0017 86.1068 89.9251 86.2903 89.9241 86.482H89.9233Z" fill="#211715"/>
<path d="M94.6716 84.2586C94.7736 85.6246 95.0667 86.9694 95.5425 88.2539C96.148 89.8611 97.02 91.3455 97.6875 92.9233C98.2533 94.1922 98.5351 95.5693 98.5131 96.9584C98.4975 97.3566 98.4465 97.9314 98.0328 97.994C97.4797 98.0784 96.9831 97.7211 96.5903 97.3631C95.4066 96.2465 94.5229 94.85 94.0204 93.3023C93.7272 92.4227 92.3286 92.7998 92.6243 93.687C93.1693 95.3023 94.052 96.783 95.2138 98.0306C96.1571 99.0604 97.9365 100.108 99.2171 98.9807C100.375 97.9611 99.9809 95.8136 99.7094 94.5036C99.3398 92.7191 98.4291 91.1059 97.6462 89.4777C96.8174 87.8472 96.2998 86.0766 96.1198 84.2564C96.0492 83.333 94.5995 83.3254 94.6719 84.2564L94.6716 84.2586Z" fill="#211715"/>
<path d="M31.9736 35.251C30.6662 38.7396 30.166 42.9051 30.0483 45.972L30.0259 46.5599C30.151 46.54 30.2779 46.5325 30.4045 46.5374C31.1079 46.5785 31.8066 46.679 32.493 46.8378C34.1505 47.2288 34.6648 47.6754 35.1444 48.4417L35.1672 48.134C35.3283 45.9623 35.5494 41.176 37.0976 36.9132C37.1414 36.81 37.1432 36.6939 37.1026 36.5894C37.062 36.485 36.9823 36.4005 36.8804 36.3539L32.9788 33.9201C32.8816 33.8765 32.7713 33.8723 32.671 33.9082C32.5707 33.9442 32.4883 34.0176 32.4409 34.113C32.2749 34.4827 32.1191 34.862 31.9736 35.251Z" fill="white"/>
<path d="M30.7723 45.9721C30.8513 43.7289 31.1192 41.4964 31.5733 39.2982C31.8181 38.1132 32.141 36.9457 32.5401 35.8034C32.639 35.5252 32.7435 35.2489 32.8536 34.9745C32.9138 34.8573 32.9651 34.7357 33.007 34.6108L33.0363 34.5445C33.1416 34.3582 33.0011 34.359 32.615 34.5467C32.6592 34.626 32.8789 34.711 32.9531 34.7574L36.0787 36.7076C36.1641 36.7608 36.3805 36.9585 36.4837 36.961C36.4888 36.961 36.5065 36.9805 36.5123 36.9787C36.0352 37.1329 36.6256 36.3717 36.3436 36.8738C36.2112 37.1702 36.1088 37.4792 36.0381 37.796C35.669 39.0102 35.3766 40.2463 35.1625 41.4971C34.8111 43.6962 34.5706 45.9116 34.4419 48.1348C34.3738 49.0643 35.8217 49.06 35.8897 48.1348C36.0088 46.015 36.2367 43.9027 36.5724 41.8062C36.8065 40.4478 37.1356 39.1074 37.5573 37.795C37.7669 37.1539 38.0828 36.4513 37.4889 35.9004C37.3451 35.7849 37.1913 35.6825 37.0292 35.5946L33.6629 33.4952C33.015 33.0905 32.2013 33.0116 31.7872 33.8152C31.2179 35.0194 30.7827 36.2827 30.4896 37.5821C29.8063 40.3303 29.416 43.1431 29.3251 45.9735C29.2889 46.9052 30.7368 46.9038 30.773 45.9735L30.7723 45.9721Z" fill="#211715"/>
<path d="M30.4046 46.5375C30.0319 46.518 29.6619 46.6098 29.3415 46.8012C29.0211 46.9925 28.7649 47.2748 28.6053 47.6121C28.4294 48.1673 28.472 48.7686 28.7244 49.2935C28.063 49.3572 27.4213 49.9005 27.3413 50.3938C27.226 50.9563 27.3074 51.5413 27.5719 52.0509C27.1607 52.3611 27.127 53.0611 27.1375 53.3844C27.211 53.8462 27.4221 54.2752 27.7434 54.615C27.6634 55.7523 28.1991 56.6652 28.6292 56.8332C29.1485 57.0058 29.6992 57.0637 30.2432 57.0029C30.3079 56.996 30.3731 56.9928 30.4343 56.9899C30.617 56.9529 30.8068 56.9813 30.9708 57.0699C31.1347 57.1585 31.2624 57.3018 31.3316 57.4749C31.8738 58.2795 32.5612 58.976 33.3586 59.5287C34.3543 59.0187 35.522 58.4106 36.3158 57.6324C37.127 56.7402 37.6669 55.6353 37.8723 54.4471C37.3378 52.7668 36.6473 51.1401 35.8098 49.5885C34.8915 48.0584 34.8412 47.3921 32.492 46.8375C31.8059 46.6789 31.1076 46.5785 30.4046 46.5375Z" fill="white"/>
<path d="M30.4046 45.8135C29.9453 45.8039 29.4911 45.9113 29.0848 46.1256C28.6784 46.34 28.3333 46.6542 28.0819 47.0388C27.8699 47.4434 27.7605 47.894 27.7636 48.3509C27.7666 48.8077 27.8819 49.2568 28.0993 49.6586L28.5318 48.5952C28.1317 48.6525 27.7532 48.8122 27.4329 49.0587C27.1125 49.3053 26.8613 49.6304 26.7035 50.0025C26.576 50.3999 26.5317 50.8194 26.5736 51.2347C26.6154 51.6499 26.7425 52.0521 26.9468 52.4161L27.0601 51.5387C26.0708 52.4052 26.2638 54.3095 27.2306 55.1279L27.0185 54.6161C26.9624 55.4018 27.1649 56.1842 27.5951 56.844C28.0855 57.5408 28.8446 57.7221 29.6662 57.7413C29.8744 57.746 30.0828 57.7384 30.2906 57.7239C30.3597 57.7192 30.5349 57.6682 30.591 57.6928C30.6634 57.7243 30.6996 57.8332 30.742 57.8966C30.8632 58.0841 31.0015 58.2622 31.1401 58.437C31.6678 59.099 32.2918 59.678 32.9912 60.1549C33.1022 60.2194 33.2283 60.2534 33.3566 60.2534C33.485 60.2534 33.6111 60.2194 33.722 60.1549C35.0935 59.4516 36.5189 58.7041 37.4293 57.4166C37.8486 56.8004 38.1681 56.1218 38.3758 55.4059C38.5097 55.0707 38.5794 54.7132 38.5814 54.3522C38.508 53.9572 38.3881 53.5723 38.2241 53.2055C37.7431 51.8649 37.161 50.5627 36.4831 49.3101C36.0176 48.4613 35.5597 47.5433 34.7569 46.9649C33.5743 46.1136 31.8163 45.8816 30.4046 45.8135C29.4733 45.769 29.4758 47.2168 30.4046 47.2614C31.4447 47.29 32.4718 47.4993 33.4401 47.88C33.9907 48.1143 34.435 48.5444 34.687 49.0871C35.7377 50.8306 36.5723 52.6955 37.1723 54.6407V54.2578C37.007 55.3028 36.5485 56.2795 35.85 57.0742C35.0573 57.8825 33.987 58.3961 32.9905 58.9065H33.7213C33.3126 58.62 32.9364 58.2899 32.5992 57.9219C32.2619 57.5621 32.0317 57.1354 31.712 56.768C31.5613 56.5953 31.3727 56.4598 31.161 56.3719C30.9493 56.284 30.7202 56.2461 30.4915 56.2612C30.0115 56.2793 29.4281 56.397 28.9713 56.1921C28.7689 56.0511 28.6268 55.8392 28.5731 55.5985C28.4062 55.0856 28.5749 54.5187 28.2285 54.0869C27.9266 53.7105 27.6092 52.9764 28.0797 52.5641C28.192 52.4504 28.2639 52.303 28.2843 52.1445C28.3048 51.9861 28.2727 51.8252 28.193 51.6867C28.0927 51.5057 28.0291 51.3066 28.006 51.1009C27.9829 50.8953 28.0007 50.687 28.0584 50.4883C28.15 50.3426 28.2757 50.2214 28.4245 50.1351C28.5734 50.0487 28.741 49.9999 28.913 49.9927C29.3937 49.9236 29.5482 49.2934 29.3455 48.9293C28.8695 48.0743 29.4787 47.2617 30.4006 47.2643C31.3352 47.2628 31.3367 45.815 30.4046 45.8135Z" fill="#211715"/>
<path d="M28.9288 50.0189C29.6607 50.0269 30.3929 50.0189 31.1241 50.0442C31.3157 50.0429 31.499 49.9662 31.6345 49.8307C31.77 49.6953 31.8467 49.5119 31.848 49.3203C31.8442 49.1295 31.7667 48.9476 31.6318 48.8126C31.4968 48.6777 31.3149 48.6002 31.1241 48.5964C30.3929 48.57 29.6607 48.579 28.9288 48.571C28.7368 48.571 28.5526 48.6473 28.4169 48.7831C28.2811 48.9188 28.2048 49.103 28.2048 49.295C28.2048 49.487 28.2811 49.6711 28.4169 49.8069C28.5526 49.9426 28.7368 50.0189 28.9288 50.0189Z" fill="#211715"/>
<path d="M27.8145 52.7653C28.7556 52.761 29.6992 52.7201 30.6414 52.7389C30.8334 52.7389 31.0176 52.6626 31.1533 52.5269C31.2891 52.3911 31.3654 52.207 31.3654 52.015C31.3654 51.823 31.2891 51.6389 31.1533 51.5031C31.0176 51.3673 30.8334 51.2911 30.6414 51.2911C29.7003 51.2722 28.7567 51.3131 27.8145 51.3175C27.6225 51.3175 27.4384 51.3938 27.3026 51.5295C27.1668 51.6653 27.0906 51.8494 27.0906 52.0414C27.0906 52.2334 27.1668 52.4175 27.3026 52.5533C27.4384 52.6891 27.6225 52.7653 27.8145 52.7653Z" fill="#211715"/>
<path d="M28.0474 55.3409C28.8912 55.3594 29.7371 55.4133 30.5812 55.3934C30.7732 55.3934 30.9573 55.3171 31.0931 55.1814C31.2288 55.0456 31.3051 54.8615 31.3051 54.6695C31.3051 54.4775 31.2288 54.2933 31.0931 54.1576C30.9573 54.0218 30.7732 53.9456 30.5812 53.9456C29.7371 53.9644 28.8912 53.9115 28.0474 53.8931C27.8554 53.8931 27.6713 53.9693 27.5355 54.1051C27.3998 54.2409 27.3235 54.425 27.3235 54.617C27.3235 54.809 27.3998 54.9931 27.5355 55.1289C27.6713 55.2647 27.8554 55.3409 28.0474 55.3409Z" fill="#211715"/>
</svg>
