<svg width="317" height="1216" viewBox="0 0 317 1216" fill="none" xmlns="http://www.w3.org/2000/svg">
<path d="M1 16.0581L28 40.43" stroke="#6F7977" stroke-linecap="round"/>
<path d="M27.9999 40.4494L54 15.5559" stroke="#6F7977" stroke-linecap="round"/>
<path d="M54 15.556L77 40.4301" stroke="#6F7977" stroke-linecap="round"/>
<path d="M77.0001 40.4299L98.0001 15.5559" stroke="#6F7977" stroke-linecap="round"/>
<path d="M98 15.556L123 40.4301" stroke="#6F7977" stroke-linecap="round"/>
<path d="M123.086 40.5299L149 14.4745" stroke="#6F7977" stroke-linecap="round"/>
<path d="M202 13.3929L228 42.8591" stroke="#6F7977" stroke-linecap="round"/>
<path d="M228 42.6749L256.806 11.3662" stroke="#6F7977" stroke-linecap="round"/>
<path d="M257 11.6302L289 43.6745" stroke="#6F7977" stroke-linecap="round"/>
<path d="M289 43.6746L316 15.556" stroke="#6F7977" stroke-linecap="round"/>
<path d="M177 42.6963L202 13.3929" stroke="#6F7977" stroke-linecap="round"/>
<path d="M149 14.4745L177 42.593" stroke="#6F7977" stroke-linecap="round"/>
<path d="M1.5 16.152C1.5 15.8758 1.27614 15.652 1 15.652C0.723858 15.652 0.5 15.8758 0.5 16.152H1.5ZM0.5 16.152L0.5 1216H1.5L1.5 16.152H0.5Z" fill="#6F7977"/>
<path d="M316.5 15.5558C316.5 15.2795 316.276 15.0558 316 15.0559C315.724 15.0559 315.5 15.2798 315.5 15.5559L316.5 15.5558ZM316.75 1216L316.5 15.5558L315.5 15.5559L315.75 1216L316.75 1216Z" fill="#6F7977"/>
<line x1="1" y1="1215.5" x2="316" y2="1215.5" stroke="#6F7977"/>
</svg>
